<svg width="31" height="31" viewBox="0 0 31 31" fill="none" xmlns="http://www.w3.org/2000/svg">
<path d="M15.9951 30.1367C24.2794 30.1367 30.9951 23.421 30.9951 15.1367C30.9951 6.85245 24.2794 0.136719 15.9951 0.136719C7.71085 0.136719 0.995117 6.85245 0.995117 15.1367C0.995117 23.421 7.71085 30.1367 15.9951 30.1367Z" fill="#DD5061"/>
<path d="M15.9952 7.40301C18.5063 7.40301 18.8175 7.40301 19.8175 7.44745C20.7286 7.4919 21.2397 7.64745 21.573 7.78079C22.0174 7.95856 22.3286 8.15856 22.6619 8.4919C22.9952 8.82523 23.1952 9.13634 23.373 9.58078C23.5063 9.91412 23.6619 10.403 23.7063 11.3363C23.7508 12.3363 23.7508 12.6252 23.7508 15.1586C23.7508 17.6697 23.7508 17.9808 23.7063 18.9808C23.6619 19.8919 23.5063 20.403 23.373 20.7363C23.1952 21.1808 22.9952 21.4919 22.6619 21.8252C22.3286 22.1586 22.0174 22.3586 21.573 22.5363C21.2397 22.6697 20.7508 22.8252 19.8175 22.8697C18.8175 22.9141 18.5286 22.9141 15.9952 22.9141C13.4841 22.9141 13.173 22.9141 12.173 22.8697C11.2619 22.8252 10.7508 22.6697 10.4175 22.5363C9.97301 22.3586 9.66189 22.1586 9.32856 21.8252C8.99523 21.4919 8.79522 21.1808 8.61745 20.7363C8.48411 20.403 8.32856 19.9141 8.28411 18.9808C8.23967 17.9808 8.23966 17.6919 8.23966 15.1586C8.23966 12.6475 8.23967 12.3363 8.28411 11.3363C8.32856 10.4252 8.48411 9.91412 8.61745 9.58078C8.79522 9.13634 8.99523 8.82523 9.32856 8.4919C9.66189 8.15856 9.97301 7.95856 10.4175 7.78079C10.7508 7.64745 11.2397 7.4919 12.173 7.44745C13.173 7.40301 13.4841 7.40301 15.9952 7.40301ZM15.9952 5.69189C13.4397 5.69189 13.1063 5.6919 12.1063 5.75856C11.1063 5.80301 10.4175 5.95856 9.81745 6.20301C9.19523 6.44745 8.6619 6.75856 8.15078 7.2919C7.61745 7.82523 7.30633 8.33634 7.06189 8.95856C6.81745 9.55856 6.66189 10.2475 6.61745 11.2475C6.573 12.2475 6.55078 12.5808 6.55078 15.1363C6.55078 17.6919 6.55078 18.0252 6.61745 19.0252C6.66189 20.0252 6.81745 20.7141 7.06189 21.3141C7.30633 21.9363 7.61745 22.4697 8.15078 22.9808C8.68412 23.5141 9.19523 23.8252 9.81745 24.0697C10.4175 24.3141 11.1063 24.4697 12.1063 24.5141C13.1063 24.5586 13.4397 24.5808 15.9952 24.5808C18.5508 24.5808 18.8841 24.5808 19.8841 24.5141C20.8841 24.4697 21.573 24.3141 22.173 24.0697C22.7952 23.8252 23.3286 23.5141 23.8397 22.9808C24.373 22.4475 24.6841 21.9363 24.9286 21.3141C25.173 20.7141 25.3286 20.0252 25.373 19.0252C25.4174 18.0252 25.4397 17.6919 25.4397 15.1363C25.4397 12.5808 25.4397 12.2475 25.373 11.2475C25.3286 10.2475 25.173 9.55856 24.9286 8.95856C24.6841 8.33634 24.373 7.80301 23.8397 7.2919C23.3063 6.75856 22.7952 6.44745 22.173 6.20301C21.573 5.95856 20.8841 5.80301 19.8841 5.75856C18.8841 5.71412 18.5508 5.69189 15.9952 5.69189Z" fill="white"/>
<path d="M15.9953 10.292C13.3064 10.292 11.1509 12.4698 11.1509 15.1364C11.1509 17.8253 13.3287 19.9809 15.9953 19.9809C18.6842 19.9809 20.8398 17.8031 20.8398 15.1364C20.8398 12.4698 18.6842 10.292 15.9953 10.292ZM15.9953 18.292C14.262 18.292 12.8398 16.892 12.8398 15.1364C12.8398 13.3809 14.2398 11.9809 15.9953 11.9809C17.7509 11.9809 19.1509 13.3809 19.1509 15.1364C19.1509 16.892 17.7287 18.292 15.9953 18.292Z" fill="white"/>
<path d="M21.0396 11.2476C21.6655 11.2476 22.1729 10.7402 22.1729 10.1143C22.1729 9.48837 21.6655 8.98096 21.0396 8.98096C20.4137 8.98096 19.9062 9.48837 19.9062 10.1143C19.9062 10.7402 20.4137 11.2476 21.0396 11.2476Z" fill="white"/>
</svg>
