<svg width="81" height="54" viewBox="0 0 81 54" fill="none" xmlns="http://www.w3.org/2000/svg">
<path d="M12.1787 45.4879H12.786V44.0034H12.1787V45.4879Z" fill="#514543"/>
<path d="M13.2783 45.4198H14.0582V43.8459H13.2783V45.4198Z" fill="#514543"/>
<path d="M14.6318 45.3516H15.5838V43.6865H14.6318V45.3516Z" fill="#514543"/>
<path d="M16.326 45.2835H17.4507V43.5277H16.326V45.2835Z" fill="#514543"/>
<path d="M18.189 45.2153H19.485V43.3683H18.189V45.2153Z" fill="#514543"/>
<path d="M20.3887 45.1452H21.8587V43.2088H20.3887V45.1452Z" fill="#514543"/>
<path d="M22.7664 43.0514H24.4071V45.0757H22.7664V43.0514Z" fill="#514543"/>
<path d="M25.4795 42.894H27.2922V45.011H25.4795V42.894Z" fill="#514543"/>
<path d="M28.4473 42.7345H30.432V44.9435H28.4473V42.7345Z" fill="#514543"/>
<path d="M32.4173 45.1876H33.8516V42.2105H32.4173V45.1876Z" fill="#514543"/>
<path d="M34.6766 45.1876H36.1109V42.2105H34.6766V45.1876Z" fill="#514543"/>
<path d="M39.418 43.2869H40.3878V42.319H39.418V43.2869Z" fill="#514543"/>
<path d="M39.418 44.7324H40.3878V43.7665H39.418V44.7324Z" fill="#514543"/>
<path d="M39.418 46.1819H40.3878V45.2153H39.418V46.1819Z" fill="#514543"/>
<path d="M68.4263 45.4879H69.0323V44.0034H68.4263V45.4879Z" fill="#514543"/>
<path d="M67.1548 45.4198H67.9347V43.8459H67.1548V45.4198Z" fill="#514543"/>
<path d="M65.6279 45.3516H66.5819V43.6865H65.6299L65.6279 45.3516Z" fill="#514543"/>
<path d="M63.7629 45.2835H64.8876V43.5277H63.7629V45.2835Z" fill="#514543"/>
<path d="M61.726 45.2153H63.0206V43.3683H61.726V45.2153Z" fill="#514543"/>
<path d="M59.3496 45.1452H60.8183V43.2088H59.3496V45.1452Z" fill="#514543"/>
<path d="M56.8059 43.0514H58.4466V45.0757H56.8059V43.0514Z" fill="#514543"/>
<path d="M53.9188 42.894H55.7315V45.011H53.9188V42.894Z" fill="#514543"/>
<path d="M50.7804 42.7345H52.7651V44.9435H50.7804V42.7345Z" fill="#514543"/>
<path d="M47.3614 45.1876H48.7957V42.2105H47.3614V45.1876Z" fill="#514543"/>
<path d="M45.1002 45.1876H46.5331V42.2105H45.1002V45.1876Z" fill="#514543"/>
<path d="M40.8252 43.2869H41.793V42.319H40.8252V43.2869Z" fill="#514543"/>
<path d="M40.8252 44.7324H41.793V43.7665H40.8252V44.7324Z" fill="#514543"/>
<path d="M40.8252 46.1819H41.793V45.2153H40.8252V46.1819Z" fill="#514543"/>
<path d="M78.7017 47.6486C75.552 53.3632 62.2857 51.2528 50.9894 48.1957H71.9882V46.6477H71.2393V41.9075L70.7193 41.7269C70.3673 41.6052 70.0061 41.4861 69.6409 41.3697V34.3981C77.5665 39.6364 80.5488 44.3004 78.7044 47.6479L78.7017 47.6486ZM42.8072 46.647V41.1692H38.4058V46.647H11.5172V43.011C18.3703 40.7485 27.8942 39.645 40.6035 39.645C53.3128 39.645 62.8381 40.7478 69.6912 43.011V46.645L42.8072 46.647ZM42.104 46.647H39.1137V41.8712H42.104V46.647ZM2.64094 49.8615C-1.01884 45.6275 4.36961 39.9916 11.5721 35.0015V41.369C11.2069 41.4861 10.8443 41.6045 10.4937 41.7263L9.9724 41.9069V46.647H9.22483V48.1951H29.1531C18.156 52.0791 6.60172 54.4475 2.63961 49.8615H2.64094ZM12.2753 32.43C12.4076 32.3876 12.5565 32.344 12.7106 32.2976V33.4223L12.2753 33.5619V32.43ZM6.24712 19.7319C7.48293 16.9884 14.8223 16.2653 24.4157 17.5408C25.1291 20.1712 25.977 22.7633 26.9561 25.3069C24.4547 26.5771 21.3652 28.2178 18.1864 30.094C16.289 30.5504 14.6173 31.0036 13.3457 31.3741C7.82761 27.0739 4.85651 22.8187 6.24712 19.7306V19.7319ZM27.621 2.64166C33.9839 0.565667 41.4543 8.63214 47.065 16.7992C45.0863 17.4879 43.173 18.2043 41.3815 18.9062V16.8706H40.9594V15.0434H40.2562V16.8706H39.8341V18.9611C39.168 19.0471 38.523 19.2529 37.9301 19.5685C33.7567 18.2583 29.5167 17.1705 25.2281 16.3096C23.7971 10.0783 23.5808 3.96082 27.6223 2.64365L27.621 2.64166ZM51.9851 24.6916C50.9923 24.2806 49.9733 23.868 48.928 23.4538C47.9648 23.0719 47.0015 22.7016 46.0383 22.3431C45.3465 21.0861 44.2873 20.0705 43.0024 19.4322C44.5359 18.9029 46.1421 18.3697 47.7828 17.8596C49.3779 20.2505 50.8042 22.6143 51.9851 24.6949V24.6916ZM72.61 16.7562C74.3963 20.9081 70.2906 25.7667 64.2082 30.3182C61.0768 28.6904 57.4765 27.0144 53.4075 25.2903C52.1505 23.0245 50.5627 20.3286 48.7454 17.5666C59.2048 14.3911 70.665 12.2383 72.6107 16.7562H72.61ZM62.7719 31.8709V30.7615C63.3289 30.8938 63.8688 31.0261 64.3835 31.1584V32.2599C63.8721 32.1316 63.3342 31.9999 62.7719 31.8703V31.8709ZM47.6584 28.5565V29.6547C47.3938 29.6388 47.1239 29.619 46.854 29.6031V28.4401C47.1186 28.4758 47.3868 28.5148 47.6584 28.5572V28.5565ZM52.4164 28.8476V30.0933C51.3817 29.9733 50.3118 29.8666 49.2065 29.7731V28.5763C50.2445 28.6266 51.3235 28.7212 52.4164 28.8476ZM53.9599 28.3375C52.339 28.1099 50.7308 27.9445 49.2072 27.8744V27.2519C48.6601 27.1527 48.1156 27.0633 47.5791 26.9839C47.4237 25.643 47.0435 24.3377 46.4544 23.1231C47.075 23.3537 47.694 23.591 48.3114 23.8349C49.7422 24.4034 51.1233 24.9697 52.4548 25.5338C53.0297 26.5652 53.5331 27.5125 53.9605 28.3408L53.9599 28.3375ZM56.1126 29.3854V30.5954C55.1546 30.4479 54.1557 30.3077 53.1223 30.1813V28.9369C54.1147 29.0639 55.1169 29.2161 56.1126 29.3854ZM59.4766 30.0238V31.177C58.6285 31.0162 57.742 30.8574 56.8158 30.7072V29.5085C57.7156 29.6692 58.6073 29.8432 59.4766 30.0232V30.0238ZM62.0673 30.5948V31.7141C61.4649 31.5796 60.8357 31.4473 60.1799 31.3172V30.1753C60.8243 30.3136 61.4567 30.4565 62.0673 30.5974V30.5948ZM55.1209 28.5148C54.7683 27.8182 54.3508 27.0223 53.8732 26.1464C56.6738 27.3633 59.2409 28.5691 61.5745 29.7639C59.5501 29.3041 57.3405 28.8608 55.1209 28.5148ZM21.0391 30.1747V31.3165C20.3846 31.4489 19.7554 31.5812 19.1516 31.7135V30.5941C19.7622 30.4525 20.394 30.3096 21.0391 30.172V30.1747ZM24.4031 29.5105V30.7092C23.4769 30.8587 22.5904 31.0182 21.7423 31.1789V30.0258C22.6109 29.8452 23.5014 29.6719 24.4031 29.5111V29.5105ZM28.0973 28.9395V30.1839C27.0626 30.3105 26.0658 30.4486 25.107 30.5981V29.3881C26.0994 29.2194 27.1049 29.0666 28.0973 28.9395ZM28.1264 28.2277C25.5126 28.5585 22.8339 29.0613 20.3815 29.5985C22.8584 28.2224 25.2254 27.0025 27.2267 26.0101C27.5482 26.8351 27.8538 27.5827 28.1264 28.2277ZM36.0844 21.0868C34.486 21.7675 33.1245 22.3715 32.0885 22.8379C31.3138 23.1872 29.7869 23.9004 27.8049 24.8927C27.0315 22.7506 26.2171 20.2519 25.5668 17.7128C29.449 18.2911 33.2941 19.0951 37.0827 20.1209C36.7159 20.4048 36.3796 20.7261 36.0791 21.0795L36.0844 21.0868ZM35.0603 28.3455C35.397 28.3031 35.7218 28.2654 36.0414 28.2317V29.5151C35.7106 29.5297 35.3851 29.5462 35.0603 29.5621V28.3455ZM32.0052 28.5744V29.7711C30.9026 29.8638 29.8326 29.9705 28.7952 30.0913V28.8456C29.8901 28.7192 30.9685 28.6246 32.0052 28.5744ZM34.3577 28.4381V29.6011C34.0878 29.617 33.8198 29.6368 33.5532 29.6527V28.5545C33.8262 28.5104 34.0944 28.4714 34.3577 28.4374V28.4381ZM33.6346 26.9787C33.0987 27.0585 32.5556 27.1478 32.0052 27.2466V27.8691C31.0439 27.9161 30.0449 28.0014 29.0281 28.1126C28.7291 27.3703 28.3996 26.5209 28.055 25.5914C30.1197 24.5811 31.7015 23.8581 32.4603 23.5154C33.188 23.1905 34.0964 22.8009 35.1569 22.3689C35.141 22.398 35.1244 22.4258 35.1079 22.4549C34.3171 23.8484 33.8149 25.3869 33.6313 26.9787H33.6346ZM36.1525 26.6651C35.8502 26.6942 35.5419 26.7312 35.2263 26.7656C35.4764 25.203 36.4674 22.3146 38.2199 20.9875C36.9919 22.6379 36.2737 24.6115 36.1538 26.6651H36.1525ZM37.7244 28.0782V29.4542C37.3945 29.4626 37.0675 29.4734 36.7433 29.4867V28.1635C37.0873 28.1324 37.4154 28.1033 37.7244 28.0802V28.0782ZM38.1061 26.4997C37.7178 26.5275 37.2983 26.5599 36.8564 26.5989C36.9312 24.3496 38.0909 21.661 39.6442 20.4583C38.7267 21.8244 38.1273 24.2643 38.1061 26.4997ZM39.4087 27.9776V29.4218C39.0779 29.4251 38.7525 29.4317 38.4276 29.4384V28.0319C38.7928 28.0087 39.1229 27.9915 39.4087 27.9783V27.9776ZM40.2502 26.3991C39.8864 26.4077 39.3955 26.4236 38.8113 26.458C38.7947 24.5114 39.291 22.5948 40.2502 20.9009V26.3991ZM41.0918 27.9538V29.4172C40.9297 29.4172 40.7656 29.4172 40.6015 29.4172C40.4375 29.4172 40.2754 29.4172 40.1113 29.4172V27.9538C40.4196 27.9452 40.5936 27.9439 40.6015 27.9439C40.6095 27.9439 40.7848 27.9439 41.0918 27.9538ZM42.7768 28.0319V29.4384C42.4519 29.4317 42.1251 29.4258 41.7957 29.4218V27.9776C42.0815 27.9909 42.4096 28.0087 42.7768 28.0312V28.0319ZM42.3931 26.4573C41.8082 26.4229 41.318 26.4071 40.9541 26.3985V20.8982C41.9134 22.5921 42.4097 24.5088 42.3931 26.4554V26.4573ZM44.4611 28.1609V29.484C44.1363 29.4708 43.8095 29.4595 43.48 29.4516V28.0755C43.789 28.0987 44.1184 28.1271 44.4611 28.1589V28.1609ZM44.346 26.5943C43.9041 26.5553 43.486 26.5228 43.0963 26.4951C43.0771 24.2603 42.4777 21.8204 41.5601 20.4536C43.1128 21.6577 44.2726 24.3456 44.346 26.5943ZM46.1441 28.3421V29.5588C45.8193 29.5422 45.4938 29.5264 45.1644 29.5118V28.2284C45.4812 28.2628 45.8074 28.2998 46.1441 28.3421ZM45.0506 26.6624C44.93 24.609 44.2118 22.6356 42.9845 20.9849C44.737 22.312 45.728 25.2004 45.9768 26.763C45.6618 26.7273 45.3529 26.6915 45.0506 26.6624ZM16.8282 32.2553V31.1538C17.3429 31.0215 17.8827 30.8892 18.4398 30.7569V31.8663C17.8779 31.9964 17.3407 32.1263 16.8282 32.256V32.2553ZM15.0625 32.7237V31.6209C15.4003 31.5282 15.7545 31.4334 16.125 31.3364V32.4359C15.7545 32.5332 15.4019 32.6278 15.0625 32.7237ZM13.4086 33.2027V32.0886C13.7023 32.0013 14.0212 31.91 14.3606 31.8154V32.9215C14.0258 33.0187 13.7076 33.112 13.4086 33.2027ZM68.0889 34.9022V40.9092C67.897 40.8559 67.7037 40.8034 67.5087 40.7518V35.7682C67.2295 35.6855 66.9133 35.5975 66.562 35.5036V40.5083C66.1902 40.417 65.8131 40.3264 65.4294 40.2404V35.2191C65.0982 35.1397 64.7454 35.059 64.3709 34.977V40.0128C63.9987 39.9348 63.6218 39.86 63.2403 39.7885V34.7348C62.8685 34.6588 62.4788 34.5807 62.074 34.5046V39.5788C61.7015 39.5127 61.3264 39.4518 60.9433 39.3936V34.2943C60.5323 34.2215 60.1073 34.1485 59.6685 34.0753V39.205C59.296 39.1515 58.9196 39.1032 58.5379 39.0542V33.894C58.088 33.8278 57.6269 33.7557 57.1539 33.6896V38.8875C56.7821 38.8465 56.4037 38.8074 56.0233 38.7684V33.5361C55.5381 33.4713 55.0404 33.4091 54.5301 33.3495V38.6288C54.1566 38.5962 53.7797 38.5653 53.3995 38.5362V33.2199C52.8747 33.163 52.3401 33.1087 51.7959 33.0571V38.4224C51.4241 38.3993 51.0457 38.3768 50.6653 38.3563V32.9552C50.1029 32.9083 49.5327 32.8626 48.9531 32.8229V38.2709C48.5813 38.2544 48.2029 38.2398 47.8225 38.2253V32.7482C47.2245 32.7107 46.6174 32.6776 46.0012 32.6489V38.167C45.6274 38.1571 45.2523 38.1492 44.8706 38.1413V32.602C44.2335 32.5795 43.5925 32.5596 42.9408 32.5471V38.1121C42.53 38.1075 42.1172 38.1042 41.6984 38.1022V32.5285C41.3326 32.5239 40.9674 32.5219 40.5969 32.5219C40.2264 32.5219 39.8612 32.5219 39.4974 32.5285V38.1022C39.0784 38.1022 38.6643 38.1055 38.255 38.1121V32.5471C37.6033 32.5596 36.9603 32.5795 36.3239 32.602V38.1413C35.9435 38.1492 35.5683 38.1571 35.1932 38.167V32.6489C34.5793 32.678 33.9722 32.7111 33.3719 32.7482V38.2253C32.9935 38.2398 32.6151 38.2544 32.2413 38.2709V32.8229C31.6631 32.8633 31.0915 32.9089 30.5305 32.9552V38.3563C30.1508 38.3774 29.7717 38.3999 29.3999 38.4224V33.0571C28.8557 33.1092 28.3211 33.1634 27.7963 33.2199V38.5349C27.4165 38.564 27.0397 38.5949 26.6657 38.6275V33.3522C26.1589 33.4124 25.6608 33.4739 25.1732 33.5387V38.7711C24.7912 38.8099 24.4144 38.8496 24.0426 38.8901V33.6922C23.5702 33.7584 23.1084 33.8285 22.6572 33.8966V39.0569C22.2768 39.1058 21.9004 39.1541 21.5266 39.2077V34.0779C21.09 34.1514 20.6666 34.2241 20.2531 34.2969V39.3943C19.8694 39.4545 19.4943 39.5173 19.1225 39.5808V34.5066C18.7183 34.5827 18.3286 34.6608 17.9562 34.7368V39.7905C17.5725 39.862 17.1973 39.9367 16.8255 40.0148V34.979C16.4537 35.0603 16.0978 35.1417 15.767 35.2211V40.2424C15.3833 40.3284 15.0069 40.4197 14.6364 40.5103V35.5056C14.2838 35.6002 13.9656 35.6875 13.6878 35.7702V40.7538C13.4926 40.8054 13.2994 40.8576 13.1062 40.9112V34.9042C22.0269 32.2532 31.2881 30.925 40.5943 30.9619C49.9004 30.9247 59.1617 32.253 68.0823 34.9042L68.0889 34.9022ZM65.0722 31.3384C65.4426 31.4358 65.7968 31.5307 66.1346 31.6229V32.7257C65.7953 32.6298 65.4413 32.5358 65.0722 32.4379V31.3384ZM66.8379 31.8173C67.1759 31.9119 67.4942 32.0026 67.7879 32.0906V33.2047C67.4889 33.114 67.1706 33.0214 66.8379 32.9235V31.8173ZM68.4918 32.2996C68.6459 32.3466 68.7921 32.3909 68.9271 32.4319V33.5606L68.4918 33.421V32.2996ZM69.6304 33.3667V31.9192L69.3849 31.8412C68.4428 31.5388 66.8994 31.0857 64.9974 30.5921C71.9564 25.6747 77.2813 20.1619 74.7568 15.8796C71.3683 10.1293 58.9322 12.761 48.0045 16.475C42.0431 7.64111 33.9277 -1.43424 27.1116 0.744292C22.1538 2.33205 22.4072 9.27385 24.0346 16.0926C13.7638 14.2164 6.03607 14.6537 4.52903 18.2824C3.10468 21.7133 6.31525 26.6598 12.5505 31.6123C12.2713 31.695 12.0213 31.7743 11.803 31.8445L11.5595 31.9225V34.2989C3.76427 39.6887 -2.35322 45.8763 1.42828 50.408C6.9808 57.0613 20.5601 52.9061 31.5725 48.2003H47.6016C59.947 52.0732 76.2248 55.5398 80.3133 48.3988C82.5567 44.4804 79.3812 39.3314 69.6396 33.37" fill="#514543"/>
</svg>
