<svg width="70" height="69" viewBox="0 0 70 69" fill="none" xmlns="http://www.w3.org/2000/svg">
<path d="M19.6736 66.3982C12.6786 62.9794 7.0478 57.2921 3.69891 50.2634C0.350024 43.2346 -0.519462 35.2788 1.23216 27.6927C2.98379 20.1065 7.25324 13.3372 13.3447 8.48822C19.4361 3.63921 26.9903 0.99636 34.7761 0.990397C42.5618 0.984435 50.1201 3.61572 56.2189 8.45539C62.3178 13.2951 66.5976 20.0578 68.3608 27.6412C70.1241 35.2247 69.2668 43.1819 65.9287 50.2157C62.5905 57.2496 56.9684 62.9454 49.9787 66.3749L49.6748 65.7563C56.5251 62.3955 62.0351 56.8136 65.3068 49.9202C68.5785 43.0269 69.4189 35.2287 67.691 27.7966C65.9631 20.3645 61.7689 13.7367 55.7919 8.99358C49.8149 4.25045 42.4076 1.67161 34.7773 1.67739C27.147 1.68317 19.7436 4.27322 13.7738 9.0254C7.80395 13.7776 3.61974 20.4117 1.90313 27.8464C0.186517 35.2811 1.03871 43.0781 4.32081 49.9664C7.60291 56.8548 13.1214 62.4284 19.9768 65.7788L19.6736 66.3982Z" fill="#514543"/>
<path d="M34.804 61.977C49.463 61.977 61.3464 50.0936 61.3464 35.4346C61.3464 20.7756 49.463 8.89221 34.804 8.89221C20.1451 8.89221 8.26164 20.7756 8.26164 35.4346C8.26164 50.0936 20.1451 61.977 34.804 61.977Z" fill="#948B8A"/>
<path d="M53.6238 46.1416V24.4636H38.6965V11.6547H30.8477V24.4636H15.9849V46.1416H10.2684V67.9502H59.3411V46.1416H53.6238Z" fill="#514543"/>
<path d="M8.57495 45.75L8.85708 46.505L5.73847 47.6705L5.42008 46.8183C5.01538 45.7362 5.02407 45.0182 6.25193 44.5591C7.4798 44.1 8.11441 44.5178 8.57495 45.75ZM6.43108 45.1321C5.52595 45.47 5.56876 46.0024 5.82332 46.6834L5.94081 46.9974L8.26165 46.1271L8.12602 45.7645C7.88523 45.1198 7.46241 44.744 6.51304 45.0987L6.43108 45.1321Z" fill="#514543"/>
<path d="M4.04931 42.3739L4.29518 42.3086L7.25062 43.1245L6.86478 41.6609L7.27528 41.5529L7.84896 43.7287L7.59367 43.7961L4.64403 42.9642L5.00159 44.3227L4.59109 44.4307L4.04931 42.3739Z" fill="#514543"/>
<path d="M5.57381 40.7109L7.07366 40.4751L7.16069 41.03L3.87162 41.5463L3.7846 40.9915L5.15389 40.7739L4.95009 39.4743L3.58079 39.6918L3.49376 39.1378L6.7821 38.6214L6.86914 39.1755L5.36929 39.4112L5.57381 40.7109Z" fill="#514543"/>
<path d="M6.60804 35.758L6.72263 37.8816L3.39876 38.0607L3.28779 35.9988L3.71135 35.9756L3.79184 37.4682L4.75717 37.416L4.69915 36.3375L5.10893 36.3157L5.16695 37.3942L6.26862 37.3348L6.18231 35.7812L6.60804 35.758Z" fill="#514543"/>
<path d="M6.69 33.2842L6.61747 35.2678L3.2907 35.1503L3.31027 34.5896L6.2222 34.6926L6.27224 33.2697L6.69 33.2842Z" fill="#514543"/>
<path d="M7.0062 30.6732L6.74076 32.783L3.43792 32.3674L3.69538 30.3186L4.11677 30.3715L3.93037 31.8547L4.88917 31.9758L5.02406 30.9046L5.43094 30.9553L5.29603 32.0265L6.39046 32.1644L6.58483 30.6202L7.0062 30.6732Z" fill="#514543"/>
<path d="M6.06337 28.9652C6.03353 29.0995 5.99103 29.2306 5.93644 29.3569L7.22451 29.647L7.10121 30.1945L3.8535 29.4649L4.066 28.5177C4.18784 27.9745 4.38149 27.308 5.24165 27.5024C5.39892 27.5318 5.54783 27.5953 5.67787 27.6885C5.80791 27.7817 5.91592 27.9023 5.99428 28.0418C6.07263 28.1813 6.11943 28.3363 6.13137 28.4959C6.14331 28.6554 6.12009 28.8156 6.06337 28.9652ZM4.46779 28.6831L4.39526 29.0102L5.54989 29.2691C5.59873 29.1408 5.63942 29.0095 5.67173 28.876C5.70295 28.7916 5.71463 28.7013 5.70591 28.6117C5.6972 28.5222 5.6683 28.4358 5.6214 28.359C5.57449 28.2822 5.51081 28.2171 5.43511 28.1685C5.35942 28.1198 5.27368 28.089 5.18436 28.0782C4.65492 27.9586 4.52799 28.3937 4.46344 28.6838L4.46779 28.6831Z" fill="#514543"/>
<path d="M8.22029 26.2136C7.9048 27.1224 7.31589 27.4973 6.06409 27.0622C4.69625 26.5878 4.73684 25.7386 4.96385 25.0837C5.20029 24.4019 5.58034 23.6955 7.0548 24.2076C8.32038 24.6485 8.50677 25.3897 8.22029 26.2136ZM6.76977 24.7377C5.70073 24.3664 5.46429 24.869 5.34607 25.2164C5.21045 25.6088 5.12849 26.1085 6.16852 26.4704L6.32881 26.5262C7.40654 26.9004 7.7068 26.4464 7.8359 26.0809C7.965 25.7154 7.99909 25.1642 6.93006 24.7936L6.76977 24.7377Z" fill="#514543"/>
<path d="M7.01636 20.5123L9.43656 23.1661L9.26974 23.5149L5.75224 23.1523L6.01912 22.5953L8.63733 22.8926L6.78719 20.9924L7.01636 20.5123Z" fill="#514543"/>
<path d="M12.1991 18.5802L11.0764 20.2171L8.33054 18.3314L8.64819 17.8687L11.0517 19.5165L11.8575 18.3423L12.1991 18.5802Z" fill="#514543"/>
<path d="M14.3067 16.0498L13.9129 16.5132L12.97 16.1506L12.2187 17.034L12.7213 17.913L12.376 18.3191L10.6739 15.128L10.964 14.7835L14.3067 16.0498ZM12.5733 15.999L11.3824 15.5428L12.0076 16.6634L12.5733 15.999Z" fill="#514543"/>
<path d="M15.4772 14.9365L14.628 15.7408L12.339 13.3242L13.0512 12.6497C13.4588 12.2639 13.9941 11.7794 14.4945 12.3089C14.6296 12.4306 14.7171 12.5963 14.7415 12.7765C14.766 12.9567 14.7257 13.1397 14.628 13.293L14.6505 13.317C14.7183 13.2435 14.8014 13.1858 14.8941 13.1481C14.9867 13.1104 15.0865 13.0936 15.1863 13.0989C15.2862 13.1041 15.3837 13.1313 15.4718 13.1786C15.5599 13.2258 15.6366 13.2919 15.6963 13.3721C16.3577 14.0698 15.6687 14.7552 15.4772 14.9365ZM13.3363 12.9507L13.0317 13.2408L13.7156 13.9661L14.0202 13.676C14.2973 13.4134 14.4648 13.1574 14.1399 12.8151C13.8621 12.5185 13.6104 12.6918 13.3363 12.9507ZM14.2211 14.0154L13.9818 14.2424L14.7505 15.054L15.0893 14.7327C15.3736 14.4636 15.6209 14.1837 15.2343 13.7761C14.8753 13.3967 14.5192 13.7333 14.2211 14.0154Z" fill="#514543"/>
<path d="M17.9402 12.9188C17.1707 13.499 16.473 13.4773 15.6782 12.4169C14.8078 11.2565 15.3155 10.5769 15.8725 10.1614C16.4527 9.72621 17.1599 9.35487 18.0962 10.6038C18.8998 11.675 18.6379 12.3952 17.9402 12.9188ZM17.5638 10.8881C16.885 9.98294 16.4099 10.2687 16.1133 10.4892C15.7811 10.7379 15.4323 11.1056 16.0945 11.9883L16.196 12.1239C16.8806 13.037 17.3854 12.8296 17.6944 12.5975C18.0033 12.3654 18.342 11.9288 17.6632 11.0237L17.5638 10.8881Z" fill="#514543"/>
<path d="M21.7638 10.4167L21.1945 10.751L20.0145 10.0823C19.9474 10.0419 19.8693 10.0235 19.7912 10.0299C19.7131 10.0363 19.639 10.0671 19.5793 10.1179L19.4452 10.1969L20.1349 11.3719L19.6511 11.6562L17.9649 8.78629L18.8062 8.29166C19.2936 8.00155 19.8723 7.8072 20.2328 8.42149C20.2992 8.51501 20.3465 8.62071 20.3719 8.73255C20.3973 8.8444 20.4004 8.96018 20.3809 9.07321C20.3614 9.18623 20.3198 9.29429 20.2584 9.39117C20.197 9.48806 20.1171 9.57187 20.0232 9.63776L20.0326 9.65442C20.1351 9.63062 20.2416 9.63025 20.3442 9.65336C20.4468 9.67647 20.5428 9.72247 20.6252 9.78789L21.7638 10.4167ZM18.9027 8.72972L18.667 8.86825L19.2377 9.83937L19.5061 9.68198C19.5943 9.65096 19.6738 9.59944 19.7381 9.53163C19.8025 9.46382 19.8498 9.38168 19.8761 9.29199C19.9025 9.20231 19.9071 9.10765 19.8897 9.01581C19.8723 8.92398 19.8333 8.8376 19.7759 8.76381C19.5365 8.35693 19.1986 8.55493 18.9019 8.72899L18.9027 8.72972Z" fill="#514543"/>
<path d="M24.741 9.07424L24.1848 9.32155L23.4921 8.58757L22.4325 9.05901L22.5051 10.0693L22.0176 10.2869L21.8624 6.67652L22.2759 6.49231L24.741 9.07424ZM23.1998 8.27645L22.3237 7.35028L22.4028 8.63111L23.1998 8.27645Z" fill="#514543"/>
<path d="M25.9914 5.59949L25.0674 5.91354L26.0008 8.66372L25.4699 8.84431L24.5358 6.09412L23.6118 6.40817L23.4755 6.00637L25.855 5.19843L25.9914 5.59949Z" fill="#514543"/>
<path d="M28.6727 7.97471C27.7334 8.18359 27.1061 7.87898 26.8182 6.58511C26.5041 5.1723 27.2483 4.76035 27.9242 4.61022C28.6284 4.45356 29.4298 4.40569 29.7678 5.92947C30.0594 7.23639 29.5241 7.78542 28.6727 7.97471ZM29.168 5.96646C28.9221 4.86189 28.3702 4.92644 28.0127 5.00621C27.608 5.09615 27.138 5.28762 27.3781 6.36463L27.415 6.52999C27.6624 7.64399 28.2078 7.66284 28.5856 7.57871C28.9635 7.49458 29.4509 7.23639 29.2057 6.13182L29.168 5.96646Z" fill="#514543"/>
<path d="M33.1867 7.27268L32.534 7.34521L31.7362 6.24934C31.6916 6.18557 31.6282 6.13731 31.5549 6.11131C31.4815 6.0853 31.4019 6.08285 31.3271 6.10429L31.1726 6.12097L31.3177 7.47575L30.76 7.53523L30.4082 4.22514L31.3786 4.12215C31.9414 4.06268 32.5499 4.12215 32.6246 4.82855C32.6466 4.94116 32.6461 5.05701 32.6231 5.16942C32.6001 5.28183 32.5552 5.38858 32.4908 5.48355C32.4265 5.57853 32.3439 5.65984 32.248 5.7228C32.1521 5.78577 32.0447 5.82914 31.932 5.85044V5.8693C32.1496 5.88381 32.2787 6.05062 32.4165 6.23193L33.1867 7.27268ZM31.2763 4.55513L31.0044 4.58414L31.1233 5.70468L31.433 5.67203C31.8225 5.63069 32.1133 5.47186 32.0575 4.94677C32.0074 4.47607 31.6187 4.5196 31.2763 4.55586V4.55513Z" fill="#514543"/>
<path d="M35.7171 3.91473L34.7293 6.06223L34.7489 7.25964L34.1883 7.26907L34.1687 6.08109L33.125 3.95752L33.7285 3.94737L34.5096 5.58501L35.1993 3.92343L35.7171 3.91473Z" fill="#514543"/>
<path d="M39.0932 7.63025C38.1424 7.4852 37.6673 6.97316 37.8675 5.66334C38.0851 4.2324 38.9293 4.11854 39.614 4.22297C40.3269 4.33249 41.0906 4.57762 40.8549 6.12026C40.654 7.44386 39.9555 7.76225 39.0932 7.63025ZM40.2819 5.93822C40.4531 4.81987 39.9193 4.68061 39.5566 4.62477C39.1461 4.56167 38.6399 4.57037 38.4724 5.66044L38.4463 5.82798C38.2736 6.95576 38.7748 7.17044 39.157 7.22919C39.5393 7.28793 40.0875 7.2241 40.2594 6.10575L40.2819 5.93822Z" fill="#514543"/>
<path d="M43.8894 5.68362L42.4809 5.31084L42.214 6.31822L43.3128 6.60833L43.2069 7.0094L42.1081 6.7193L41.7382 8.11904L41.1958 7.97399L42.0472 4.75601L43.9981 5.27239L43.8894 5.68362Z" fill="#514543"/>
<path d="M47.5331 10.2607L47.1806 10.1026L46.628 7.02752L45.572 9.38026L45.1462 9.18881L46.509 6.15213L47.0639 6.40089L47.5461 9.09233L48.4709 7.03188L48.8966 7.22263L47.5331 10.2607Z" fill="#514543"/>
<path d="M50.8635 10.944C50.791 11.0933 50.6848 11.2238 50.5533 11.3251C50.4218 11.4265 50.2686 11.4959 50.1057 11.528C49.9428 11.56 49.7746 11.5538 49.6145 11.5099C49.4545 11.4659 49.3067 11.3854 49.183 11.2747C48.3367 10.767 48.4578 10.123 48.6602 9.78716L49.8808 7.74338L50.3623 8.03348L49.2113 9.96051C49.1618 10.0423 49.1288 10.1331 49.1143 10.2276C49.0998 10.3222 49.1041 10.4187 49.1269 10.5116C49.1497 10.6045 49.1906 10.692 49.2472 10.7691C49.3038 10.8462 49.375 10.9114 49.4568 10.961C49.5386 11.0106 49.6294 11.0435 49.724 11.058C49.8185 11.0725 49.915 11.0683 50.0079 11.0455C50.1009 11.0227 50.1883 10.9818 50.2654 10.9252C50.3426 10.8685 50.4078 10.7973 50.4573 10.7155L51.6134 8.7805L52.0137 9.01982L50.8635 10.944Z" fill="#514543"/>
<path d="M53.3598 13.2423C53.129 13.3626 52.869 13.4153 52.6096 13.3944C52.3502 13.3735 52.1019 13.2798 51.8934 13.1241C51.4198 12.7651 50.8265 12.1668 51.81 10.8707C52.5795 9.85535 53.3265 9.85534 54.0286 10.3884C54.1519 10.4503 54.2614 10.5367 54.3502 10.6424C54.4391 10.748 54.5054 10.8707 54.5453 11.0028C54.5851 11.135 54.5976 11.2739 54.582 11.4111C54.5663 11.5482 54.5229 11.6807 54.4543 11.8005L53.956 11.6554C54.0544 11.4982 54.0874 11.3087 54.0481 11.1275C54.0088 10.9462 53.9003 10.7875 53.7457 10.685C53.4752 10.4798 53.0676 10.2064 52.3263 11.1826L52.2538 11.2805C51.6156 12.1218 51.8992 12.5504 52.1958 12.776C52.3454 12.8958 52.5268 12.969 52.7177 12.9866C52.9085 13.0041 53.1003 12.9652 53.2692 12.8746L53.3598 13.2423Z" fill="#514543"/>
<path d="M54.7567 15.5123L53.2989 14.1655L55.5574 11.7207L55.9693 12.1015L53.9923 14.2417L55.0381 15.2077L54.7567 15.5123Z" fill="#514543"/>
<path d="M56.5278 17.4524L55.1012 15.875L57.5671 13.6419L58.9523 15.1737L58.6375 15.458L57.6352 14.349L56.918 14.9974L57.6432 15.7952L57.3394 16.0701L56.6141 15.2723L55.796 16.0121L56.8396 17.166L56.5278 17.4524Z" fill="#514543"/>
<path d="M58.4838 20.0924L58.1263 19.6006L58.6992 18.7702L58.0175 17.8325L57.0441 18.1139L56.7308 17.6831L60.2288 16.7772L60.495 17.1399L58.4838 20.0924ZM58.9407 18.4199L59.666 17.3698L58.433 17.715L58.9407 18.4199Z" fill="#514543"/>
<path d="M59.93 22.6011L59.6007 22.0289L60.2788 20.8546C60.3198 20.7879 60.3387 20.71 60.333 20.6319C60.3272 20.5538 60.2972 20.4795 60.2469 20.4195L60.1693 20.2846L58.9886 20.9649L58.708 20.479L61.5916 18.8159L62.0789 19.6616C62.3618 20.1519 62.5547 20.7321 61.9375 21.0875C61.8435 21.1532 61.7376 21.1998 61.6256 21.2245C61.5136 21.2492 61.3978 21.2515 61.2849 21.2312C61.172 21.211 61.0641 21.1687 60.9677 21.1067C60.8712 21.0447 60.788 20.9642 60.7227 20.8699L60.706 20.8793C60.7288 20.9819 60.7284 21.0883 60.7044 21.1907C60.6804 21.293 60.6336 21.3886 60.5675 21.4704L59.93 22.6011ZM61.6409 19.753L61.5045 19.5158L60.5283 20.0786L60.6843 20.3484C60.7146 20.4369 60.7655 20.517 60.8328 20.582C60.9002 20.6469 60.982 20.6949 61.0716 20.722C61.1612 20.7491 61.2559 20.7544 61.3479 20.7376C61.44 20.7209 61.5267 20.6824 61.6009 20.6255C62.0085 20.3905 61.8128 20.0511 61.6409 19.753Z" fill="#514543"/>
<path d="M62.3262 24.919C62.2771 24.7905 62.2399 24.6576 62.2153 24.5223L60.9823 24.993L60.7821 24.4693L63.8914 23.2828L64.2373 24.1901C64.436 24.7094 64.6435 25.3723 63.8196 25.687C63.6721 25.7495 63.5126 25.7787 63.3525 25.7727C63.1924 25.7667 63.0356 25.7256 62.8932 25.6523C62.7507 25.5791 62.6261 25.4754 62.5282 25.3487C62.4302 25.222 62.3613 25.0753 62.3262 24.919ZM63.8145 24.2699L63.6948 23.9573L62.5895 24.3794C62.6196 24.5135 62.6581 24.6455 62.7048 24.7747C62.7252 24.8625 62.7654 24.9446 62.8222 25.0147C62.879 25.0848 62.9509 25.1411 63.0326 25.1794C63.1143 25.2177 63.2036 25.2369 63.2938 25.2356C63.384 25.2344 63.4728 25.2126 63.5534 25.1721C64.056 24.9806 63.9203 24.5477 63.8145 24.2706V24.2699Z" fill="#514543"/>
<path d="M62.3632 29.3939L62.1907 28.7564L63.1466 27.7939C63.2025 27.7398 63.2402 27.6696 63.2544 27.593C63.2686 27.5164 63.2585 27.4374 63.2256 27.3668L63.185 27.2166L61.8701 27.5727L61.725 27.031L64.9379 26.1606L65.1932 27.1035C65.3382 27.6496 65.3796 28.2596 64.6928 28.4459C64.5851 28.4854 64.4707 28.5032 64.3561 28.4983C64.2415 28.4934 64.129 28.4659 64.0251 28.4174C63.9211 28.3689 63.8278 28.3003 63.7504 28.2155C63.6731 28.1308 63.6133 28.0317 63.5744 27.9238L63.5563 27.9288C63.5766 28.1464 63.4316 28.2994 63.272 28.4648L62.3632 29.3939ZM64.7443 27.0774L64.6717 26.8134L63.5838 27.1086L63.6658 27.4088C63.7681 27.7867 63.9711 28.0492 64.481 27.9107C64.9372 27.7874 64.8342 27.4103 64.7443 27.0781V27.0774Z" fill="#514543"/>
<path d="M62.5997 31.083C62.4546 30.1322 62.7969 29.5259 64.106 29.3221C65.5362 29.0994 65.8996 29.8689 66.0054 30.555C66.1157 31.2679 66.1121 32.0701 64.5702 32.3094C63.2465 32.5154 62.7338 31.9453 62.5997 31.083ZM64.5717 31.7075C65.69 31.5341 65.6595 30.9822 65.6051 30.6196C65.5413 30.2098 65.381 29.729 64.2909 29.8979L64.1227 29.924C62.9949 30.0988 62.9405 30.642 63.0007 31.0243C63.0609 31.4065 63.2864 31.9098 64.4048 31.7365L64.5717 31.7075Z" fill="#514543"/>
<path d="M62.9572 34.3575L62.9108 33.1892L66.2368 33.0572L66.2761 34.037C66.2978 34.5976 66.3079 35.3192 65.582 35.3483C65.4014 35.3698 65.2191 35.3266 65.0674 35.2263C64.9157 35.126 64.8046 34.9752 64.7537 34.8007H64.7204C64.6979 35.0611 64.6696 35.5259 63.9908 35.5513C63.0298 35.5912 62.9696 34.6215 62.9572 34.3575ZM64.4803 34.0188L64.4672 33.6888L63.3503 33.7331L63.3692 34.1994C63.3844 34.5903 63.4323 34.9609 63.9929 34.9392C64.5129 34.9189 64.4926 34.4286 64.4766 34.0217L64.4803 34.0188ZM65.864 34.0536L65.8481 33.6344L64.8538 33.6743L64.8697 34.0935C64.8849 34.475 64.9677 34.7687 65.4384 34.7506C65.8409 34.7339 65.8764 34.4308 65.8612 34.0536H65.864Z" fill="#514543"/>
<path d="M62.8694 38.1637L62.9797 36.1823L66.3028 36.3673L66.2717 36.9271L63.3627 36.7654L63.2836 38.1869L62.8694 38.1637Z" fill="#514543"/>
<path d="M62.501 40.7638L62.8093 38.6606L66.1026 39.1428L65.8031 41.1866L65.3832 41.125L65.6008 39.6461L64.6442 39.5062L64.4875 40.5745L64.0814 40.5151L64.2381 39.4467L63.1465 39.2871L62.9217 40.8269L62.501 40.7638Z" fill="#514543"/>
<path d="M61.5205 44.5671L61.6655 44.026L64.1169 44.6962L61.9556 42.9903L62.0332 42.7082L64.7609 42.3499L62.3146 41.6805L62.4379 41.2301L65.6486 42.1084L65.4608 42.7953L62.8143 43.1579L64.9096 44.8064L64.7356 45.4432L61.5205 44.5671Z" fill="#514543"/>
<path d="M60.8134 46.0343C61.2058 45.0791 61.8345 45.251 61.9977 45.2873L61.9687 45.816C61.8873 45.7909 61.8017 45.7822 61.7169 45.7906C61.6321 45.7989 61.5499 45.8241 61.4749 45.8646C61.4 45.9051 61.3338 45.9601 61.2804 46.0265C61.227 46.0929 61.1873 46.1692 61.1637 46.2511C61.0187 46.5956 61.0136 46.8879 61.3762 47.0366C61.6902 47.1657 61.7845 47.0721 62.1501 46.7537L62.5388 46.4143C63.0269 45.9835 63.2343 45.9509 63.5918 46.0981C64.1104 46.3113 64.262 46.761 63.9487 47.5247C63.6223 48.3181 63.1473 48.271 62.8311 48.2224L62.8535 47.6712C63.2416 47.7082 63.4722 47.619 63.6056 47.2919C63.7093 47.0388 63.7507 46.7588 63.4518 46.6391C63.2343 46.5492 63.111 46.5753 62.7266 46.9365L62.3342 47.2955C61.9049 47.6951 61.6648 47.7698 61.242 47.5958C60.6901 47.3651 60.5088 46.7769 60.8134 46.0343Z" fill="#514543"/>
<path d="M39.1056 11.9818H38.4166V46.1409H39.1056V11.9818Z" fill="white"/>
<path d="M31.1915 11.9818H30.5025V46.1409H31.1915V11.9818Z" fill="white"/>
<path d="M53.9567 24.1568H53.2677V46.2722H53.9567V24.1568Z" fill="white"/>
<path d="M16.3048 24.1568H15.6158V46.2722H16.3048V24.1568Z" fill="white"/>
<path d="M53.4309 29.5056H16.1779V30.1779H53.4309V29.5056Z" fill="white"/>
<path d="M53.4309 24.151H16.1779V24.8233H53.4309V24.151Z" fill="white"/>
<path d="M38.4992 24.1437H31.1088V24.8327H38.4992V24.1437Z" fill="white"/>
<path d="M38.4992 34.8508H31.1088V35.5398H38.4992V34.8508Z" fill="white"/>
<path d="M38.4992 40.2047H31.1088V40.8936H38.4992V40.2047Z" fill="white"/>
<path d="M51.9572 51.7523H17.1889V52.4369H51.9572V51.7523Z" fill="white"/>
<path d="M59.5855 67.7428H10.0218V68.4318H59.5855V67.7428Z" fill="white"/>
<path d="M59.5855 66.2364H10.0218V66.9254H59.5855V66.2364Z" fill="white"/>
<path d="M51.9971 47.3796H17.3912V48.0643H51.9971V47.3796Z" fill="white"/>
<path d="M51.881 50.198H17.3912V50.8826H51.881V50.198Z" fill="white"/>
<path d="M38.9946 18.7899H30.6127V19.4789H38.9946V18.7899Z" fill="white"/>
<path d="M39.1041 11.3363H30.504V12.0253H39.1041V11.3363Z" fill="white"/>
<path d="M59.6022 45.7971H10.0059V46.4861H59.6022V45.7971Z" fill="white"/>
<path d="M28.8562 34.066H27.1329V45.9197H28.8562V34.066Z" fill="white"/>
<path d="M25.4104 34.066H23.6872V45.9197H25.4104V34.066Z" fill="white"/>
<path d="M45.9201 34.066H44.1969V45.9197H45.9201V34.066Z" fill="white"/>
<path d="M42.4744 34.066H40.7512V45.9197H42.4744V34.066Z" fill="white"/>
<path d="M35.6714 20.4413H33.9359V24.5252H35.6714V20.4413Z" fill="white"/>
<path d="M33.0018 13.7471C33.2326 13.7471 33.4539 13.8388 33.6172 14.002C33.7804 14.1653 33.8721 14.3866 33.8721 14.6174V19.1431H32.1314V14.6174C32.1314 14.3866 32.2231 14.1653 32.3864 14.002C32.5496 13.8388 32.7709 13.7471 33.0018 13.7471V13.7471Z" fill="white"/>
<path d="M36.6107 13.7471C36.8415 13.7471 37.0628 13.8388 37.2261 14.002C37.3893 14.1652 37.481 14.3866 37.481 14.6174V19.143H35.7403V14.6174C35.7403 14.3866 35.832 14.1652 35.9952 14.002C36.1585 13.8388 36.3798 13.7471 36.6107 13.7471V13.7471Z" fill="white"/>
<path d="M35.6714 25.851H33.9359V29.9349H35.6714V25.851Z" fill="white"/>
<path d="M35.6714 31.26H33.9359V35.3439H35.6714V31.26Z" fill="white"/>
<path d="M35.6714 36.6697H33.9359V40.7536H35.6714V36.6697Z" fill="white"/>
<path d="M35.6714 42.0794H33.9359V46.1634H35.6714V42.0794Z" fill="white"/>
<path d="M17.6414 46.4709H16.9524V67.8189H17.6414V46.4709Z" fill="white"/>
<path d="M10.705 46.4905H10.016V67.8386H10.705V46.4905Z" fill="white"/>
<path d="M52.3184 46.4709H51.6294V67.819H52.3184V46.4709Z" fill="white"/>
<path d="M59.5927 46.4651H58.9037V67.8131H59.5927V46.4651Z" fill="white"/>
<path d="M14.6969 48.4653H12.9613V51.4418H14.6969V48.4653Z" fill="white"/>
<path d="M14.6969 54.3443H12.9613V58.4848H14.6969V54.3443Z" fill="white"/>
<path d="M15.0015 63.1918H12.656V65.295H15.0015V63.1918Z" fill="white"/>
<path d="M56.4792 48.4653H54.7436V51.4418H56.4792V48.4653Z" fill="white"/>
<path d="M56.4792 54.3443H54.7436V58.4848H56.4792V54.3443Z" fill="white"/>
<path d="M56.7838 63.1918H54.4383V65.295H56.7838V63.1918Z" fill="white"/>
<path d="M40.9912 52.0945H40.3022V67.8189H40.9912V52.0945Z" fill="white"/>
<path d="M29.3058 52.0945H28.6168V67.8189H29.3058V52.0945Z" fill="white"/>
<path d="M43.3273 53.5081H42.1807V57.4956H43.3273V53.5081Z" fill="white"/>
<path d="M43.3273 59.5183H42.1807V63.5058H43.3273V59.5183Z" fill="white"/>
<path d="M50.7975 53.5081H49.6508V57.4956H50.7975V53.5081Z" fill="white"/>
<path d="M50.7975 59.5183H49.6508V63.5058H50.7975V59.5183Z" fill="white"/>
<path d="M45.5553 53.5081H44.4087V57.4956H45.5553V53.5081Z" fill="white"/>
<path d="M45.5553 59.5183H44.4087V62.2881H45.5553V59.5183Z" fill="white"/>
<path d="M48.5695 53.5081H47.4228V57.4956H48.5695V53.5081Z" fill="white"/>
<path d="M48.5695 59.5183H47.4228V62.2881H48.5695V59.5183Z" fill="white"/>
<path d="M47.6615 63.1918H45.316V65.295H47.6615V63.1918Z" fill="white"/>
<path d="M19.9572 53.5081H18.8106V57.4956H19.9572V53.5081Z" fill="white"/>
<path d="M19.9572 59.5183H18.8106V63.5058H19.9572V59.5183Z" fill="white"/>
<path d="M27.4274 53.5081H26.2808V57.4956H27.4274V53.5081Z" fill="white"/>
<path d="M27.4274 59.5183H26.2808V63.5058H27.4274V59.5183Z" fill="white"/>
<path d="M22.1852 53.5081H21.0386V57.4956H22.1852V53.5081Z" fill="white"/>
<path d="M22.1852 59.5183H21.0386V62.2881H22.1852V59.5183Z" fill="white"/>
<path d="M25.1994 53.5081H24.0528V57.4956H25.1994V53.5081Z" fill="white"/>
<path d="M25.1994 59.5183H24.0528V62.2881H25.1994V59.5183Z" fill="white"/>
<path d="M24.2914 63.1918H21.9459V65.295H24.2914V63.1918Z" fill="white"/>
<path d="M31.6426 53.5081H30.496V57.4956H31.6426V53.5081Z" fill="white"/>
<path d="M31.6426 59.5183H30.496V63.5058H31.6426V59.5183Z" fill="white"/>
<path d="M39.1128 53.5081H37.9662V57.4956H39.1128V53.5081Z" fill="white"/>
<path d="M39.1128 59.5183H37.9662V63.5058H39.1128V59.5183Z" fill="white"/>
<path d="M33.8706 53.5081H32.724V57.4956H33.8706V53.5081Z" fill="white"/>
<path d="M33.8706 59.5183H32.724V63.5058H33.8706V59.5183Z" fill="white"/>
<path d="M36.8848 53.5081H35.7382V57.4956H36.8848V53.5081Z" fill="white"/>
<path d="M36.8848 59.5183H35.7382V63.5058H36.8848V59.5183Z" fill="white"/>
<path d="M18.9302 27.1028H17.1947V29.7826H18.9302V27.1028Z" fill="white"/>
<path d="M30.6142 27.1028H28.8786V29.7826H30.6142V27.1028Z" fill="white"/>
<path d="M21.8509 27.1028H20.1153V29.7826H21.8509V27.1028Z" fill="white"/>
<path d="M24.7722 27.1028H23.0367V29.7826H24.7722V27.1028Z" fill="white"/>
<path d="M27.6928 27.1028H25.9573V29.7826H27.6928V27.1028Z" fill="white"/>
<path d="M40.7287 27.1028H38.9931V29.7826H40.7287V27.1028Z" fill="white"/>
<path d="M52.4126 27.1028H50.6771V29.7826H52.4126V27.1028Z" fill="white"/>
<path d="M43.65 27.1028H41.9145V29.7826H43.65V27.1028Z" fill="white"/>
<path d="M46.5707 27.1028H44.8351V29.7826H46.5707V27.1028Z" fill="white"/>
<path d="M49.492 27.1028H47.7565V29.7826H49.492V27.1028Z" fill="white"/>
</svg>
