<svg width="31" height="31" viewBox="0 0 31 31" fill="none" xmlns="http://www.w3.org/2000/svg">
<path d="M15.4834 30.25C23.7677 30.25 30.4834 23.5343 30.4834 15.25C30.4834 6.96573 23.7677 0.25 15.4834 0.25C7.19914 0.25 0.483398 6.96573 0.483398 15.25C0.483398 23.5343 7.19914 30.25 15.4834 30.25Z" fill="#DD5061"/>
<path d="M12.4612 23.8945C19.7945 23.8945 23.7945 17.8278 23.7945 12.5611C23.7945 12.3834 23.7945 12.2278 23.7723 12.05C24.5501 11.4945 25.2168 10.7834 25.7501 9.98336C25.039 10.2945 24.2612 10.5167 23.4612 10.6056C24.2834 10.1167 24.9056 9.33892 25.2167 8.40559C24.439 8.87226 23.5945 9.18337 22.6834 9.38337C21.9501 8.60559 20.9279 8.1167 19.7723 8.1167C17.5723 8.1167 15.7945 9.89448 15.7945 12.0945C15.7945 12.4056 15.839 12.7167 15.9056 13.0056C12.5945 12.85 9.6612 11.25 7.70565 8.85003C7.37231 9.42781 7.17232 10.1167 7.17232 10.85C7.17232 12.2278 7.88343 13.45 8.9501 14.1611C8.30566 14.1389 7.68342 13.9611 7.15009 13.6723C7.15009 13.6945 7.15009 13.6945 7.15009 13.7167C7.15009 15.65 8.52786 17.25 10.3501 17.6278C10.0167 17.7167 9.6612 17.7611 9.30565 17.7611C9.03898 17.7611 8.79453 17.7389 8.55009 17.6945C9.0612 19.2723 10.5279 20.4278 12.2612 20.45C10.9057 21.5167 9.17232 22.1611 7.30565 22.1611C6.99454 22.1611 6.66121 22.1389 6.3501 22.1167C8.10565 23.25 10.2167 23.8945 12.4612 23.8945Z" fill="white"/>
</svg>
