<svg width="31" height="31" viewBox="0 0 31 31" fill="none" xmlns="http://www.w3.org/2000/svg">
<path d="M30.8672 15.1139C30.8672 6.83116 24.1561 0.125 15.8672 0.125C7.5783 0.125 0.867188 6.83116 0.867188 15.1139C0.867188 22.5973 6.35608 28.7927 13.5339 29.9252V19.4663H9.71163V15.1361H13.5116V11.8275C13.5116 8.07468 15.7561 5.98734 19.1783 5.98734C20.8227 5.98734 22.5339 6.27601 22.5339 6.27601V9.96218H20.645C18.7783 9.96218 18.2005 11.1169 18.2005 12.2938V15.1139H22.3561L21.6894 19.4441H18.2005V29.9252C25.3783 28.8149 30.8672 22.5973 30.8672 15.1139Z" fill="#DD5061"/>
<path d="M21.6894 19.466L22.3561 15.1359H18.2006V12.3157C18.2006 11.1388 18.7783 9.98412 20.645 9.98412H22.5339V6.29795C22.5339 6.29795 20.8228 6.00928 19.1783 6.00928C15.7561 6.00928 13.5117 8.07442 13.5117 11.8494V15.1581H9.71167V19.466H13.5117V29.9471C14.2672 30.0582 15.0672 30.1248 15.845 30.1248C16.6228 30.1248 17.4228 30.0582 18.1783 29.9471V19.466H21.6894Z" fill="white"/>
</svg>
