<svg width="31" height="31" viewBox="0 0 31 31" fill="none" xmlns="http://www.w3.org/2000/svg">
<path d="M15.7393 30.25C7.48238 30.25 0.739258 23.5069 0.739258 15.25C0.739258 6.99311 7.48238 0.25 15.7393 0.25C23.9961 0.25 30.7393 6.99311 30.7393 15.25C30.7393 23.5069 23.9961 30.25 15.7393 30.25ZM15.7393 1.28211C8.03284 1.28211 1.77137 7.54357 1.77137 15.25C1.77137 22.9564 8.03284 29.2179 15.7393 29.2179C23.4457 29.2179 29.7071 22.9564 29.7071 15.25C29.7071 7.54357 23.4457 1.28211 15.7393 1.28211Z" fill="#DD5061"/>
<path d="M7.0353 10.8125C7.86099 10.8125 9.58118 10.8125 10.166 10.8125C10.3037 10.8125 10.4069 10.8813 10.4413 10.9845C11.1637 12.567 12.0582 13.9776 13.0904 15.2161C13.1936 15.3538 13.4 15.3537 13.4688 15.1817C13.8128 14.3904 14.3977 12.4294 13.228 11.0189C13.1248 10.8813 13.1592 10.7092 13.3312 10.6404C14.5353 10.1244 15.705 10.0556 16.8404 10.5716C17.0812 10.6749 17.2532 10.9157 17.2532 11.1909L17.5284 15.2161C17.5284 15.3882 17.7004 15.5258 17.8725 15.4914C19.1798 15.2161 19.9711 13.2551 20.728 11.1909C20.8312 10.9501 21.072 10.7781 21.3472 10.7781H24.2371C24.478 10.7781 24.65 10.9845 24.6156 11.2253C24.3404 12.6703 22.861 14.5625 22.1041 15.4914C21.8289 15.801 21.8289 16.2482 22.1041 16.5923L24.6844 19.6886C24.8564 19.895 24.7188 20.2391 24.4092 20.2391H21.1408C20.8656 20.2391 20.6248 20.1359 20.4183 19.9294L18.1133 18.0372C18.0101 17.8996 17.7692 17.8652 17.666 18.0028C17.3908 18.3469 17.3908 18.7597 17.2532 19.7574C17.2188 20.067 16.9436 20.2735 16.6339 20.2735H14.3977C14.0881 20.2735 13.7784 20.2047 13.4688 20.067C12.1959 19.4478 8.65228 17.2804 6.69127 11.2597C6.65686 11.0189 6.79448 10.8125 7.0353 10.8125Z" fill="#DD5061"/>
<path d="M15.7393 30.25C7.48238 30.25 0.739258 23.5069 0.739258 15.25C0.739258 6.99311 7.48238 0.25 15.7393 0.25C23.9961 0.25 30.7393 6.99311 30.7393 15.25C30.7393 23.5069 23.9961 30.25 15.7393 30.25Z" fill="#DD5061"/>
<path d="M7.0353 10.8125C7.86099 10.8125 9.58118 10.8125 10.166 10.8125C10.3037 10.8125 10.4069 10.8813 10.4413 10.9845C11.1637 12.567 12.0582 13.9776 13.0904 15.2161C13.1936 15.3538 13.4 15.3537 13.4688 15.1817C13.8128 14.3904 14.3977 12.4294 13.228 11.0189C13.1248 10.8813 13.1592 10.7092 13.3312 10.6404C14.5353 10.1244 15.705 10.0556 16.8404 10.5716C17.0812 10.6749 17.2532 10.9157 17.2532 11.1909L17.5284 15.2161C17.5284 15.3882 17.7004 15.5258 17.8725 15.4914C19.1798 15.2161 19.9711 13.2551 20.728 11.1909C20.8312 10.9501 21.072 10.7781 21.3472 10.7781H24.2371C24.478 10.7781 24.65 10.9845 24.6156 11.2253C24.3404 12.6703 22.861 14.5625 22.1041 15.4914C21.8289 15.801 21.8289 16.2482 22.1041 16.5923L24.6844 19.6886C24.8564 19.895 24.7188 20.2391 24.4092 20.2391H21.1408C20.8656 20.2391 20.6248 20.1359 20.4183 19.9294L18.1133 18.0372C18.0101 17.8996 17.7692 17.8652 17.666 18.0028C17.3908 18.3469 17.3908 18.7597 17.2532 19.7574C17.2188 20.067 16.9436 20.2735 16.6339 20.2735H14.3977C14.0881 20.2735 13.7784 20.2047 13.4688 20.067C12.1959 19.4478 8.65228 17.2804 6.69127 11.2597C6.65686 11.0189 6.79448 10.8125 7.0353 10.8125Z" fill="white"/>
</svg>
