<?xml version="1.0" encoding="utf-8"?>
<!-- Generator: Adobe Illustrator 26.0.1, SVG Export Plug-In . SVG Version: 6.00 Build 0)  -->
<svg version="1.1" id="Layer_1" xmlns="http://www.w3.org/2000/svg" xmlns:xlink="http://www.w3.org/1999/xlink" x="0px" y="0px"
	 viewBox="0 0 297.6 396.9" style="enable-background:new 0 0 297.6 396.9;" xml:space="preserve">
<style type="text/css">
	.st0{display:none;}
	.st1{display:none;fill:none;stroke:#000000;stroke-miterlimit:10;}
	.st2{fill:#C4BBBA;}
	.st3{fill:#FFCC99;}
	.st4{fill:#005792;}
	.st5{fill:#F7EAD0;}
</style>
<g id="Layer_2_00000021107674182179260990000000882451360082432945_" class="st0">
</g>
<line class="st1" x1="1365" y1="-2041.9" x2="1365" y2="-1823.3"/>
<line class="st1" x1="1294.3" y1="-1930.8" x2="1448.5" y2="-1930.8"/>
<g>
	<g>
		<path class="st2" d="M255.9,171.2c0,46.6-43.2,84.4-96.5,84.4c-8,0-46.8,5.7-63.1-5.7c-27.2-19-33.4-61.2-33.4-78.7
			c0-46.6,43.2-84.4,96.5-84.4S255.9,124.6,255.9,171.2z"/>
	</g>
	<g>
		<path class="st3" d="M226.9,289.3c0,0-52.7,34.7-79.5,44.4S106,319.5,106,319.5c2.8-1.5,5.1-3,6.4-4.2c7-6.4,18.4-12.8,17.5-18.9
			s-4.7-46.5-4.7-46.5s19.7-47.3,48-54.1c28.3-6.8,22.9,11,22.9,11s-5.5,16-1.8,35.5C197.9,261.7,221.8,284.4,226.9,289.3z"/>
	</g>
	<g>
		<path class="st4" d="M183.3,218.8c3.7,19.4-54.5,67-54.5,67c-0.9-6.1-3.6-35.9-3.6-35.9S179.6,199.4,183.3,218.8z"/>
	</g>
	<g>
		<path class="st3" d="M109.3,77.4C90.4,81,76.1,94,73.8,125.1s-2.8,26.6,0,36.3s4.6,12.4,2,24.5c-4,19.1,27.9,78.1,51.4,74
			c8.4-1.5,47.7-20.9,57.4-36.8c9.7-15.8,12.3-32.9,15.8-46c3.6-13,3.1-46-4.1-65.6c-7.1-19.7-14.2-24.5-40.6-34.2
			C146,73.8,128.2,73.8,109.3,77.4z"/>
	</g>
	<g>
		<path d="M105.8,221.2c-2.6,0-5-0.4-6.8-1.1c-0.5-0.2-0.8-0.8-0.5-1.3c0.2-0.5,0.8-0.8,1.3-0.5c3.1,1.3,8.6,1.3,13.1,0
			c1.5-0.5,2.8-0.2,4.3,0.1c3.4,0.6,9,1.7,24.2-3.7c0.5-0.2,1.1,0.1,1.3,0.6c0.2,0.5-0.1,1.1-0.6,1.3c-15.7,5.5-21.7,4.4-25.2,3.7
			c-1.4-0.3-2.4-0.4-3.4-0.1C111,220.8,108.3,221.2,105.8,221.2z"/>
	</g>
	<g>
		<path d="M118.1,196.3c-0.1,0-0.1,0-0.2,0c-8.7-1.8-14-3.1-14.9-7.6c-0.4-1.9,1.2-9.3,3.8-21.2c1.5-6.9,3-13.4,3.3-16.4
			c0.1-0.5,0.6-0.9,1.1-0.9c0.5,0.1,0.9,0.6,0.9,1.1c-0.3,3.1-1.8,9.6-3.3,16.6c-1.8,8.4-4.1,18.8-3.8,20.4c0.6,2.9,4.4,4.2,13.3,6
			c0.5,0.1,0.9,0.6,0.8,1.2C119,196,118.6,196.3,118.1,196.3z"/>
	</g>
	<g>
		<circle cx="94.9" cy="160.5" r="3.7"/>
	</g>
	<g>
		<circle cx="149.9" cy="156.5" r="3.7"/>
	</g>
	<g>
		<g>
			<path d="M95.6,146.7c-5.6-2-17.2-5.3-21,0.8c-0.6,1.1-2.3,0.4-1.8-0.8c1.9-4.5,7.2-5.7,11.5-5.9s8.6,0.5,12.7,1.5
				c1.3,0.3,2,1.6,1.7,2.8C98.3,146.4,96.9,147.2,95.6,146.7L95.6,146.7z"/>
		</g>
	</g>
	<g>
		<g>
			<path d="M130,140.7c9.8-4.1,21.1-7.6,31.6-4.1c3.5,1,6.7,2.4,9.9,3.9c0.5,0.2,0.7,0.8,0.5,1.3s-0.8,0.7-1.3,0.5
				c-3.2-1.3-6.5-2.4-9.8-3.2c-10.1-2.7-20,1.4-29,5.8C129,146.3,127,142,130,140.7L130,140.7z"/>
		</g>
	</g>
	<g>
		<path class="st4" d="M110.9,227.5c5.2,1.7,9,1.3,13.3-0.1c0.5-0.2,3.8-1.1,3.8-0.5c0.1,0.5-2.2,1.6-2.7,1.8
			c-1.2,0.4-3,1.3-7.5,1.3c-2.5,0-7.3-1.1-8.8-2.1c-0.5-0.3-0.9-0.7-0.8-1.2C108.3,226.3,110.9,227.5,110.9,227.5z"/>
	</g>
	<g>
		<path d="M113.3,216.1c-0.7,0-2-0.6-4.5-2.1c-0.2-0.1-0.3-0.4-0.2-0.7s0.4-0.3,0.7-0.2c3,1.8,3.8,2,4,1.9c0.6-0.1,2.5-1.1,3.8-1.9
			c0.2-0.2,0.5-0.1,0.7,0.1s0.1,0.5-0.1,0.7c-1.1,0.8-3.4,2-4.2,2.1C113.4,216.1,113.4,216.1,113.3,216.1z"/>
	</g>
	<g>
		<g>
			<path d="M105.6,160.5c-4.7-1.5-9.8-3.1-14.6-2.3c-2.7,0.9-4.9,2.5-7.3,3.9c-1.2,0.7-5.2,2.6-5.6-0.2c0-0.9,0.8-1.7,1.7-1.6
				c0.6,0.1,1.6-0.2,2.5-0.7c2.6-1.3,5.3-2.9,8.2-3.5c3-0.5,6.1,0.3,8.9,1.1c2.2,0.7,4.4,1.4,6.6,2.4
				C106.5,159.8,106.2,160.7,105.6,160.5L105.6,160.5z"/>
		</g>
	</g>
	<g>
		<g>
			<path d="M132,158.8c3.2-2.4,6.5-4.7,10.2-6.2c1.8-0.8,4.2-1.3,6.2-0.9c1.3,0.1,4.6,0.5,5.9,0.7c1.9,0.2,3.8,0.5,5.7,0.5
				c0.6,0,1.2-0.1,1.5-0.2c0.8-0.3,1.7,0.1,2,0.9c0.6,2.3-2.2,2.3-3.5,2.2c-4.5-0.3-9.2-1.6-13.6-2.1c-5,0.3-9.6,3.3-13.8,5.8
				C132.1,160,131.5,159.2,132,158.8L132,158.8z"/>
		</g>
	</g>
	<g>
		<path d="M135,337c-19.2,0-29.7-16.8-29.8-17c-0.3-0.5-0.1-1.1,0.3-1.4c0.5-0.3,1.1-0.1,1.4,0.3c0.6,0.9,14.5,23.1,40.2,13.8
			c26.4-9.5,78.8-43.9,79.3-44.3l2.3-1.6c0.5-0.3,1.1-0.2,1.4,0.3c0.3,0.5,0.2,1.1-0.3,1.4l-2.3,1.6c-0.5,0.4-53.1,34.9-79.7,44.5
			C143.2,336.3,138.9,337,135,337z"/>
	</g>
	<g>
		<path class="st4" d="M196.2,194.3l6.5-3.1c0,0,12.4,6.2,1.7,15.6c-2.4,2.1-10.8,8.1-9.9,4.8C195.3,208.3,196.2,194.3,196.2,194.3z
			"/>
	</g>
	<g>
		<path class="st3" d="M204,160.2c3.2-3.1,9.9-2.5,14.5,0.3s5.3,7.8,1.5,20.6c-3.3,11.4-25.6,37.8-25.6,19.6"/>
	</g>
	<g>
		<path class="st5" d="M103.5,87.7c0,0,12.4,1.5,19.2,22.1c6.8,20.6,28.3,37.7,39.1,46.6c10.8,8.9,17.5,8.8,19.7,15.7
			s5.8-6.4,0-11.7s-22.8-19.1-25.2-27.1s9.7,9.5,14.7,13.7s15.1,8.6,19.3,17.1c4.3,8.5,19.7,26.7,28.3,29.1
			c8.5,2.4,22.8-5.4,22.8-5.4c2.7-6.6-3.6,15-10.6,21.8s-28.7,7.7-37,6.9c-8.4-0.8-15.1,3.4-5.1,15.8s42.1,19.3,49.6,13.4
			c7.5-6,24.2-20,25.2-49.8s5.3-38.9,2.7-43.1c-2.6-4.3-3.2-1.7-9.2-5.7c-6-4-27.9-76.3-79-84.5s-76.8,6.5-85.4,13.6
			S69.5,80.6,63,101.4s-14,42.6-6.5,55.1s4.3,14.5-0.3,28.6s-14.8,33.5,8.5,52.4s33.5,23.9,43.6,22.6s2.8-5.5,2.8-5.5
			s-26.8-11.8-34.2-26.9s-1.2-27-1.1-34.4c0.1-7.4-7.4-11.3-7.8-15.3s-1.8-13.8-0.3-21.2s-0.9-4.3,5.9-22s0.9-24,11.3-32.3
			C95.4,94,103.5,87.7,103.5,87.7z"/>
	</g>
</g>
</svg>
