<?xml version="1.0" encoding="utf-8"?>
<!-- Generator: Adobe Illustrator 26.0.1, SVG Export Plug-In . SVG Version: 6.00 Build 0)  -->
<svg version="1.1" id="Layer_1" xmlns="http://www.w3.org/2000/svg" xmlns:xlink="http://www.w3.org/1999/xlink" x="0px" y="0px"
	 viewBox="0 0 297.6 396.9" style="enable-background:new 0 0 297.6 396.9;" xml:space="preserve">
<style type="text/css">
	.st0{display:none;}
	.st1{display:none;fill:none;stroke:#000000;stroke-miterlimit:10;}
	.st2{fill:#FFCC99;}
	.st3{fill:#005792;}
	.st4{opacity:0.4;enable-background:new    ;}
	.st5{fill:#FFFFFF;}
	.st6{fill:#DD5061;}
</style>
<g id="Layer_2_00000021107674182179260990000000882451360082432945_" class="st0">
</g>
<line class="st1" x1="1365" y1="-2041.9" x2="1365" y2="-1823.3"/>
<line class="st1" x1="1294.3" y1="-1930.8" x2="1448.5" y2="-1930.8"/>
<g>
	<g>
		<path d="M105.9,311.4C93.3,299.2,69,207.2,66.8,193.9c-2.2-13.4,28.4-139.6,94.6-106.7s83.7,169.9,82.6,189.5
			c-1.1,19.6-11.3,36.4-20.9,39.4C182.2,328.8,139.8,344.4,105.9,311.4z"/>
	</g>
	<g>
		<path class="st2" d="M238.6,320c-13.6,15.2-47.3,38.5-95.4,36.5c-33.1-1.4-46.3-19.9-50.5-27.8c11.9-5.1,28-10.4,28.3-18.5
			c0.3-8.2-6.1-42.6-7.6-49.1c0,0,88.5-53,83.6-24.4c-8.1,46.7,1.7,63.8,5.6,67.7C204.6,306.5,220.5,314.6,238.6,320z"/>
	</g>
	<g>
		<path class="st3" d="M113.4,261.2c1.1,4.6,4.7,23.6,6.5,37c0.7,5.3,73.5-17.3,71.4-59.4C189.8,209.8,113.4,261.2,113.4,261.2z"/>
	</g>
	<g>
		<path class="st2" d="M85.1,140.7c-3.5,17.2,2.8,33.4,2.3,37.5s-2.4,23.2-3.1,27.7c-0.7,4.4,6.9,34.3,7.8,38.4
			c2.8,12.7,18.7,36.6,40.4,36.6c19.7,0,50.5-13.9,62.7-36.8c3.4-6.4,23-36.8,21.8-59.3s-0.3-40.2-13.2-55.3
			C139.7,53.8,91.6,108.4,85.1,140.7z"/>
	</g>
	<g>
		<path class="st2" d="M211,186.1c6.1-1.3,11.9-10.4,15.8,0c3.5,9.3-5.5,25.7-9.7,32.2c-6.4,10.1-15.8,10.1-15.5,5.7
			S211,186.1,211,186.1z"/>
	</g>
	<g>
		<path d="M121.8,89.3c1.3,13.7,2.1,42.1,5.6,54.3c3.5,12.2,11.3,15.8,11.3,15.8s-3.1-12.1-4.3-21c0,0,17.2,28.7,45.8,29.8
			c1.8,0.1,18.9,2,21.8,7.3c2.6,4.7,5.5,16.2,6.7,25.2s12.8,26.2,12.5,41s17.1,56.4,17.1,56.4s8.9-27.9,7.9-40.6
			c-1.6-20.7,15.6-44.2,7.5-62.9c-11.4-26-12.4-52.2-26.1-74.6c-9.6-15.6-38.7-50.9-78.5-43.3C122.2,82,121.8,89.3,121.8,89.3z"/>
	</g>
	<g>
		<path d="M113.4,157c0.5-8.2,12.2-36.5,14.4-46.1c2.1-9.6,24.6-33.7-1.3-30.5c-45.6,5.6-53,47.4-58.6,64.2s-2.7,47.5-1.1,59.3
			c1.6,11.9-3.8,39.9,0,47.5c3.8,7.6,34.2,43,30.7,32.6s-21.7-70.7-23.4-78.5c-1.6-7.7,2.1-20.3,3.9-25.6s16.3-19,16.3-19l11.5-17
			l-6,16.2L113.4,157z"/>
	</g>
	<g>
		<circle cx="167.4" cy="181" r="4.4"/>
	</g>
	<g>
		<circle cx="110.3" cy="182.9" r="4.4"/>
	</g>
	<g>
		<g>
			<path d="M153,183.1c4.2-5.1,10.8-9.7,17.7-7.1c3.2,1,5.9,3.1,8.6,4.9c0.5,0.3,1,0.5,1,0.5c2-1.2,3.9,1.8,1.9,3.1
				c-0.6,0.4-1.5,0.2-2.1,0.1c-1.2-0.2-1.9-0.7-2.5-1.1c-9-7.8-15.1-8.2-23.6,0.6C153.4,184.7,152.4,183.7,153,183.1L153,183.1z"/>
		</g>
	</g>
	<g>
		<g>
			<path d="M146.8,169c3-3.8,7.1-5.6,11.5-6.9c10.3-2.9,21.7-1.2,30.6,4.6c1.8,1.2,3.4,2.5,5,3.9c0.3,0.3,0.3,0.7,0.1,1
				c-0.3,0.3-0.7,0.3-1,0.1c-1.6-1.3-3.2-2.4-4.9-3.4c-10.2-5.9-23.6-6.3-33.8-0.4c-1.6,1-3,2.2-3.9,3.5
				C148.6,173.7,145.1,171.3,146.8,169L146.8,169z"/>
		</g>
	</g>
	<g>
		<g>
			<path d="M121,185.2c-2.1-1.1-3.7-2.8-5.7-3.9c-5.3-3.5-13.1-1.8-16.7,3.3c-1.3,1.7-3.8-0.2-2.6-1.9c4-4.8,11.2-6.7,17-4.5
				c2.7,1.2,4.9,3.2,7.1,5.1c0.4,0.4,0.9,0.8,1.3,1C122.1,184.5,121.6,185.4,121,185.2L121,185.2z"/>
		</g>
	</g>
	<g>
		<g>
			<path d="M120.6,172.9c-6.7-5.7-14.1-10.3-23.2-7.3c-2.7,0.8-5.2,2.3-7.7,3.9c-0.4,0.3-1,0.2-1.3-0.2c-0.3-0.4-0.2-0.9,0.2-1.2
				c2.4-1.8,5-3.7,8-4.7c9.7-3.9,18.5,0.3,26.3,6C125.4,170.9,123,174.6,120.6,172.9L120.6,172.9z"/>
		</g>
	</g>
	<g>
		<path d="M132.2,224.1c-0.1,0-0.2,0-0.2,0c-3-0.7-9.6-3.8-11.8-8.1c-0.9-1.6-1-3.2-0.4-4.8c0.6-1.6,1.5-3.9,2.6-6.6
			c3.2-8.1,7.9-20.4,8.9-24.9c0.1-0.5,0.6-0.9,1.2-0.8c0.5,0.1,0.9,0.6,0.8,1.2c-1,4.7-5.6,16.6-9,25.2c-1,2.7-1.9,5-2.5,6.6
			c-0.4,1-0.3,2,0.3,3.1c1.8,3.4,7.7,6.4,10.5,7c0.5,0.1,0.9,0.7,0.7,1.2C133.1,223.8,132.7,224.1,132.2,224.1z"/>
	</g>
	<g class="st4">
		<path class="st5" d="M141,183.5c0,0,11.4-21.1,47.8-5c1.7,15-2.2,30.8-17,34.7C159.5,216.5,142.1,213.1,141,183.5z"/>
	</g>
	<g>
		<path class="st6" d="M164.3,215.3c-4.1,0-8.9-0.9-13.2-4.1c-6.9-5.1-10.6-14.3-11.1-27.6c0-0.2,0-0.4,0.1-0.5
			c0.1-0.2,12.3-21.7,49.1-5.4c0.3,0.1,0.5,0.4,0.6,0.8c2.1,18.9-4.5,32.3-17.7,35.8C170.1,214.7,167.3,215.3,164.3,215.3z
			 M142,183.8c0.5,12.4,4,21.1,10.3,25.7c6.8,5,15,3.9,19.3,2.7c17.6-4.6,17.1-25.8,16.3-33.1C155.2,165,143.4,181.6,142,183.8z"/>
	</g>
	<g>
		
			<rect x="81.4" y="176" transform="matrix(0.156 -0.9878 0.9878 0.156 -109.1249 233.8435)" class="st6" width="1.7" height="9.6"/>
	</g>
	<g class="st4">
		<path class="st5" d="M123.2,185.5c0,0,4.5,30.1-22.7,28.8C82,213.4,77.8,180,77.8,180S112.3,162.2,123.2,185.5z"/>
	</g>
	<g>
		<path class="st6" d="M102.2,215.4c-0.6,0-1.1,0-1.7,0c-19.1-0.9-23.5-33.8-23.6-35.2c-0.1-0.4,0.2-0.8,0.5-1
			c0.8-0.4,20-10.2,34.6-5.2c5.5,1.9,9.6,5.6,12.2,11.2c0,0.1,0.1,0.2,0.1,0.3c0.1,0.6,2.1,14.9-5.7,23.6
			C114.7,213.2,109.2,215.4,102.2,215.4z M78.9,180.6c0.7,4.8,5.7,31.9,21.7,32.7c7.2,0.3,12.7-1.6,16.4-5.6
			c6.8-7.6,5.5-20.4,5.3-21.9c-2.4-5-6-8.3-11-10C99,171.6,82.3,179,78.9,180.6z"/>
	</g>
	<g>
		
			<rect x="188.6" y="175" transform="matrix(0.9817 -0.1904 0.1904 0.9817 -29.8232 41.6241)" class="st6" width="26.3" height="2"/>
	</g>
	<g>
		<path d="M134.4,242.3c-0.6,0-1.2,0-1.7,0l-1.2,0c-1.7,0-4.3-0.1-7.1-0.1c-3.2-0.1-7.3-0.1-9-0.1c-0.2,0.2-0.5,0.2-0.8,0.2
			c-1.1-0.2-1.2-0.8-1.2-1.2c0.1-1.1,0.1-1.1,11-0.9c2.8,0.1,5.4,0.1,7.1,0.1l1.2,0c5,0,15.5,0,22.5-1.7c0.5-0.1,1.1,0.2,1.2,0.7
			c0.1,0.5-0.2,1.1-0.7,1.2C149.2,242.2,140,242.3,134.4,242.3z"/>
	</g>
	<g>
		<path d="M132.3,235.4c-1.1,0-3.5-0.6-5.2-1.1c-0.7-0.2-1.3-0.3-1.6-0.4c-0.3-0.1-0.4-0.3-0.4-0.6c0.1-0.3,0.3-0.4,0.6-0.4
			c0.3,0.1,0.9,0.2,1.6,0.4c1.6,0.4,4.1,1.1,5,1.1c1.1,0,5-1.1,6.4-1.5c0.3-0.1,0.5,0.1,0.6,0.3c0.1,0.3-0.1,0.5-0.3,0.6
			C138.7,234,133.8,235.4,132.3,235.4z"/>
	</g>
	<g>
		<path class="st3" d="M133.2,252.9c-2.6,0-4.5-0.6-5.4-0.9c-0.2-0.1-0.3-0.1-0.4-0.1c-0.3,0-0.5-0.3-0.4-0.6c0-0.3,0.3-0.5,0.6-0.4
			c0.1,0,0.3,0.1,0.5,0.1c1.4,0.4,5.5,1.7,10.5-0.1c0.3-0.1,0.5,0,0.6,0.3c0.1,0.3,0,0.5-0.3,0.6
			C136.8,252.6,134.9,252.9,133.2,252.9z"/>
	</g>
	<g>
		<path class="st6" d="M123.2,186.4c-0.2,0-0.5-0.1-0.6-0.2c-0.4-0.4-0.5-1-0.1-1.4c2.8-3.3,5.9-5.1,9.4-5.4
			c5.5-0.4,9.6,3.2,9.8,3.4c0.4,0.4,0.5,1,0.1,1.4c-0.4,0.4-1,0.5-1.4,0.1c0,0-3.7-3.2-8.4-2.9c-2.9,0.2-5.6,1.8-8,4.7
			C123.8,186.3,123.5,186.4,123.2,186.4z"/>
	</g>
	<g>
		<path d="M148.9,357.6c-1.9,0-3.8,0-5.7-0.1c-33.5-1.4-47.1-20.3-51.3-28.3c-0.4-0.7-0.7-1.3-0.9-1.9c-0.2-0.5,0-1.1,0.6-1.3
			c0.5-0.2,1.1,0,1.3,0.6c0.2,0.5,0.5,1,0.8,1.7c4.1,7.8,17.2,25.9,49.7,27.3c44.3,1.9,78.7-18.3,94.6-36.2c0.4-0.4,1-0.4,1.4-0.1
			c0.4,0.4,0.4,1,0.1,1.4C223.8,338.1,191.1,357.6,148.9,357.6z"/>
	</g>
</g>
</svg>
