<svg width="31" height="31" viewBox="0 0 31 31" fill="none" xmlns="http://www.w3.org/2000/svg">
<path fill-rule="evenodd" clip-rule="evenodd" d="M11.0749 5.7829H8.98448L8.99216 15.707V25.6292H11.0873C12.2425 25.6292 13.1931 25.5935 13.2027 25.531C13.2027 25.5224 13.2035 25.454 13.205 25.3346C13.2115 24.8022 13.2305 23.2551 13.243 21.4738C13.2526 17.9028 13.2776 17.4583 13.4831 17.0346C13.9132 16.1138 14.6689 15.7318 15.7587 15.8559C16.3982 15.9273 16.8035 16.2279 17.1789 16.8838C17.4439 17.3799 17.4535 17.4315 17.4535 21.4986V25.6272H21.7293L21.689 20.5679C21.6535 16.0404 21.6285 15.457 21.4336 14.8984C20.9333 13.4726 19.9731 12.5061 18.6125 12.0358C17.9922 11.8076 17.6321 11.7719 16.7468 11.7977C15.4015 11.8493 14.691 12.1182 13.846 12.8881L13.2411 13.4468L13.2507 9.76763C13.2507 7.74153 13.2353 6.02103 13.2104 5.93272C13.1758 5.81862 12.64 5.7829 11.0749 5.7829ZM30.3555 15.8545C30.3555 24.1388 23.6397 30.8545 15.3555 30.8545C7.07121 30.8545 0.355469 24.1388 0.355469 15.8545C0.355469 7.57022 7.07121 0.854492 15.3555 0.854492C23.6397 0.854492 30.3555 7.57022 30.3555 15.8545Z" fill="#DD5061"/>
</svg>
