<svg width="25" height="25" viewBox="0 0 25 25" fill="none" xmlns="http://www.w3.org/2000/svg">
<path d="M14.8032 11.6997C14.9076 11.6997 14.9921 11.6151 14.9921 11.5107C14.9921 11.4064 14.9076 11.3218 14.8032 11.3218C14.6989 11.3218 14.6143 11.4064 14.6143 11.5107C14.6143 11.6151 14.6989 11.6997 14.8032 11.6997Z" fill="#DD5061"/>
<path d="M12.2212 10.2519C12.3255 10.2519 12.4101 10.1673 12.4101 10.063C12.4101 9.95862 12.3255 9.87402 12.2212 9.87402C12.1168 9.87402 12.0322 9.95862 12.0322 10.063C12.0322 10.1673 12.1168 10.2519 12.2212 10.2519Z" fill="#DD5061"/>
<path d="M11.9062 13.2114C12.0106 13.2114 12.0952 13.1268 12.0952 13.0224C12.0952 12.9181 12.0106 12.8335 11.9062 12.8335C11.8019 12.8335 11.7173 12.9181 11.7173 13.0224C11.7173 13.1268 11.8019 13.2114 11.9062 13.2114Z" fill="#DD5061"/>
<path d="M14.8032 12.2665C14.9076 12.2665 14.9921 12.1819 14.9921 12.0776C14.9921 11.9733 14.9076 11.8887 14.8032 11.8887C14.6989 11.8887 14.6143 11.9733 14.6143 12.0776C14.6143 12.1819 14.6989 12.2665 14.8032 12.2665Z" fill="#DD5061"/>
<path d="M12.7251 10.0004C12.8294 10.0004 12.914 9.91585 12.914 9.81151C12.914 9.70716 12.8294 9.62256 12.7251 9.62256C12.6207 9.62256 12.5361 9.70716 12.5361 9.81151C12.5361 9.91585 12.6207 10.0004 12.7251 10.0004Z" fill="#DD5061"/>
<path d="M11.4653 12.8969C11.5696 12.8969 11.6542 12.8123 11.6542 12.708C11.6542 12.6036 11.5696 12.519 11.4653 12.519C11.3609 12.519 11.2764 12.6036 11.2764 12.708C11.2764 12.8123 11.3609 12.8969 11.4653 12.8969Z" fill="#DD5061"/>
<path d="M14.6772 12.8969C14.7816 12.8969 14.8661 12.8123 14.8661 12.708C14.8661 12.6036 14.7816 12.519 14.6772 12.519C14.5729 12.519 14.4883 12.6036 14.4883 12.708C14.4883 12.8123 14.5729 12.8969 14.6772 12.8969Z" fill="#DD5061"/>
<path d="M13.3547 9.93595C13.4938 9.93595 13.6066 9.82317 13.6066 9.68404C13.6066 9.54491 13.4938 9.43213 13.3547 9.43213C13.2156 9.43213 13.1028 9.54491 13.1028 9.68404C13.1028 9.82317 13.2156 9.93595 13.3547 9.93595Z" fill="#DD5061"/>
<path d="M11.0876 12.456C11.2267 12.456 11.3395 12.3432 11.3395 12.2041C11.3395 12.0649 11.2267 11.9521 11.0876 11.9521C10.9485 11.9521 10.8357 12.0649 10.8357 12.2041C10.8357 12.3432 10.9485 12.456 11.0876 12.456Z" fill="#DD5061"/>
<path d="M14.3623 13.4638C14.5014 13.4638 14.6142 13.351 14.6142 13.2119C14.6142 13.0727 14.5014 12.96 14.3623 12.96C14.2231 12.96 14.1104 13.0727 14.1104 13.2119C14.1104 13.351 14.2231 13.4638 14.3623 13.4638Z" fill="#DD5061"/>
<path d="M13.9846 9.99991C14.1237 9.99991 14.2365 9.88713 14.2365 9.748C14.2365 9.60888 14.1237 9.49609 13.9846 9.49609C13.8454 9.49609 13.7327 9.60888 13.7327 9.748C13.7327 9.88713 13.8454 9.99991 13.9846 9.99991Z" fill="#DD5061"/>
<path d="M10.8986 11.7631C11.0378 11.7631 11.1505 11.6503 11.1505 11.5112C11.1505 11.3721 11.0378 11.2593 10.8986 11.2593C10.7595 11.2593 10.6467 11.3721 10.6467 11.5112C10.6467 11.6503 10.7595 11.7631 10.8986 11.7631Z" fill="#DD5061"/>
<path d="M13.8586 13.9672C13.9977 13.9672 14.1105 13.8544 14.1105 13.7153C14.1105 13.5762 13.9977 13.4634 13.8586 13.4634C13.7195 13.4634 13.6067 13.5762 13.6067 13.7153C13.6067 13.8544 13.7195 13.9672 13.8586 13.9672Z" fill="#DD5061"/>
<path d="M14.6142 10.3149C14.7533 10.3149 14.8661 10.2021 14.8661 10.0629C14.8661 9.92382 14.7533 9.81104 14.6142 9.81104C14.4751 9.81104 14.3623 9.92382 14.3623 10.0629C14.3623 10.2021 14.4751 10.3149 14.6142 10.3149Z" fill="#DD5061"/>
<path d="M10.8986 11.0707C11.0378 11.0707 11.1505 10.9579 11.1505 10.8188C11.1505 10.6797 11.0378 10.5669 10.8986 10.5669C10.7595 10.5669 10.6467 10.6797 10.6467 10.8188C10.6467 10.9579 10.7595 11.0707 10.8986 11.0707Z" fill="#DD5061"/>
<path d="M13.1657 14.2192C13.3049 14.2192 13.4176 14.1064 13.4176 13.9672C13.4176 13.8281 13.3049 13.7153 13.1657 13.7153C13.0266 13.7153 12.9138 13.8281 12.9138 13.9672C12.9138 14.1064 13.0266 14.2192 13.1657 14.2192Z" fill="#DD5061"/>
<path d="M15.1811 10.8183C15.3202 10.8183 15.433 10.7055 15.433 10.5664C15.433 10.4272 15.3202 10.3145 15.1811 10.3145C15.042 10.3145 14.9292 10.4272 14.9292 10.5664C14.9292 10.7055 15.042 10.8183 15.1811 10.8183Z" fill="#DD5061"/>
<path d="M11.1506 10.3779C11.2897 10.3779 11.4025 10.2651 11.4025 10.126C11.4025 9.98682 11.2897 9.87402 11.1506 9.87402C11.0115 9.87402 10.8987 9.98682 10.8987 10.126C10.8987 10.2651 11.0115 10.3779 11.1506 10.3779Z" fill="#DD5061"/>
<path d="M12.4101 14.2821C12.5492 14.2821 12.662 14.1694 12.662 14.0302C12.662 13.8911 12.5492 13.7783 12.4101 13.7783C12.271 13.7783 12.1582 13.8911 12.1582 14.0302C12.1582 14.1694 12.271 14.2821 12.4101 14.2821Z" fill="#DD5061"/>
<path d="M15.559 11.5111C15.7329 11.5111 15.8739 11.3701 15.8739 11.1962C15.8739 11.0223 15.7329 10.8813 15.559 10.8813C15.3851 10.8813 15.2441 11.0223 15.2441 11.1962C15.2441 11.3701 15.3851 11.5111 15.559 11.5111Z" fill="#DD5061"/>
<path d="M11.6542 9.81045C11.8282 9.81045 11.9691 9.66947 11.9691 9.49556C11.9691 9.32165 11.8282 9.18066 11.6542 9.18066C11.4803 9.18066 11.3394 9.32165 11.3394 9.49556C11.3394 9.66947 11.4803 9.81045 11.6542 9.81045Z" fill="#DD5061"/>
<path d="M11.6542 14.1566C11.8282 14.1566 11.9691 14.0157 11.9691 13.8417C11.9691 13.6678 11.8282 13.5269 11.6542 13.5269C11.4803 13.5269 11.3394 13.6678 11.3394 13.8417C11.3394 14.0157 11.4803 14.1566 11.6542 14.1566Z" fill="#DD5061"/>
<path d="M15.748 12.3295C15.9219 12.3295 16.0629 12.1885 16.0629 12.0146C16.0629 11.8407 15.9219 11.6997 15.748 11.6997C15.5741 11.6997 15.4331 11.8407 15.4331 12.0146C15.4331 12.1885 15.5741 12.3295 15.748 12.3295Z" fill="#DD5061"/>
<path d="M12.3471 9.30654C12.521 9.30654 12.662 9.16556 12.662 8.99165C12.662 8.81774 12.521 8.67676 12.3471 8.67676C12.1732 8.67676 12.0322 8.81774 12.0322 8.99165C12.0322 9.16556 12.1732 9.30654 12.3471 9.30654Z" fill="#DD5061"/>
<path d="M10.8986 13.7152C11.0725 13.7152 11.2135 13.5743 11.2135 13.4003C11.2135 13.2264 11.0725 13.0854 10.8986 13.0854C10.7247 13.0854 10.5837 13.2264 10.5837 13.4003C10.5837 13.5743 10.7247 13.7152 10.8986 13.7152Z" fill="#DD5061"/>
<path d="M15.622 13.2113C15.7959 13.2113 15.9369 13.0703 15.9369 12.8964C15.9369 12.7225 15.7959 12.5815 15.622 12.5815C15.4481 12.5815 15.3071 12.7225 15.3071 12.8964C15.3071 13.0703 15.4481 13.2113 15.622 13.2113Z" fill="#DD5061"/>
<path d="M13.1657 9.05459C13.3396 9.05459 13.4806 8.91361 13.4806 8.7397C13.4806 8.56579 13.3396 8.4248 13.1657 8.4248C12.9918 8.4248 12.8508 8.56579 12.8508 8.7397C12.8508 8.91361 12.9918 9.05459 13.1657 9.05459Z" fill="#DD5061"/>
<path d="M10.2687 13.0224C10.4427 13.0224 10.5836 12.8814 10.5836 12.7075C10.5836 12.5336 10.4427 12.3926 10.2687 12.3926C10.0948 12.3926 9.95386 12.5336 9.95386 12.7075C9.95386 12.8814 10.0948 13.0224 10.2687 13.0224Z" fill="#DD5061"/>
<path d="M15.2441 14.0932C15.418 14.0932 15.559 13.9522 15.559 13.7783C15.559 13.6044 15.418 13.4634 15.2441 13.4634C15.0702 13.4634 14.9292 13.6044 14.9292 13.7783C14.9292 13.9522 15.0702 14.0932 15.2441 14.0932Z" fill="#DD5061"/>
<path d="M14.1735 9.11805C14.3822 9.11805 14.5514 8.94887 14.5514 8.74018C14.5514 8.53149 14.3822 8.3623 14.1735 8.3623C13.9648 8.3623 13.7957 8.53149 13.7957 8.74018C13.7957 8.94887 13.9648 9.11805 14.1735 9.11805Z" fill="#DD5061"/>
<path d="M9.89081 12.204C10.0995 12.204 10.2687 12.0348 10.2687 11.8261C10.2687 11.6174 10.0995 11.4482 9.89081 11.4482C9.68212 11.4482 9.51294 11.6174 9.51294 11.8261C9.51294 12.0348 9.68212 12.204 9.89081 12.204Z" fill="#DD5061"/>
<path d="M14.5512 14.9115C14.7599 14.9115 14.9291 14.7423 14.9291 14.5336C14.9291 14.3249 14.7599 14.1558 14.5512 14.1558C14.3425 14.1558 14.1733 14.3249 14.1733 14.5336C14.1733 14.7423 14.3425 14.9115 14.5512 14.9115Z" fill="#DD5061"/>
<path d="M15.1181 9.43251C15.3268 9.43251 15.496 9.26332 15.496 9.05463C15.496 8.84594 15.3268 8.67676 15.1181 8.67676C14.9094 8.67676 14.7402 8.84594 14.7402 9.05463C14.7402 9.26332 14.9094 9.43251 15.1181 9.43251Z" fill="#DD5061"/>
<path d="M9.76508 11.1332C9.97377 11.1332 10.1429 10.964 10.1429 10.7553C10.1429 10.5466 9.97377 10.3774 9.76508 10.3774C9.55639 10.3774 9.38721 10.5466 9.38721 10.7553C9.38721 10.964 9.55639 11.1332 9.76508 11.1332Z" fill="#DD5061"/>
<path d="M13.6066 15.4154C13.8153 15.4154 13.9845 15.2462 13.9845 15.0375C13.9845 14.8289 13.8153 14.6597 13.6066 14.6597C13.3979 14.6597 13.2288 14.8289 13.2288 15.0375C13.2288 15.2462 13.3979 15.4154 13.6066 15.4154Z" fill="#DD5061"/>
<path d="M15.9997 10.0634C16.2084 10.0634 16.3776 9.89418 16.3776 9.68549C16.3776 9.4768 16.2084 9.30762 15.9997 9.30762C15.791 9.30762 15.6218 9.4768 15.6218 9.68549C15.6218 9.89418 15.791 10.0634 15.9997 10.0634Z" fill="#DD5061"/>
<path d="M10.0168 10.0634C10.2255 10.0634 10.3947 9.89418 10.3947 9.68549C10.3947 9.4768 10.2255 9.30762 10.0168 9.30762C9.8081 9.30762 9.63892 9.4768 9.63892 9.68549C9.63892 9.89418 9.8081 10.0634 10.0168 10.0634Z" fill="#DD5061"/>
<path d="M12.5361 15.6673C12.7795 15.6673 12.9769 15.47 12.9769 15.2265C12.9769 14.983 12.7795 14.7856 12.5361 14.7856C12.2926 14.7856 12.0952 14.983 12.0952 15.2265C12.0952 15.47 12.2926 15.6673 12.5361 15.6673Z" fill="#DD5061"/>
<path d="M16.6296 11.0707C16.8731 11.0707 17.0704 10.8733 17.0704 10.6298C17.0704 10.3863 16.8731 10.189 16.6296 10.189C16.3861 10.189 16.1887 10.3863 16.1887 10.6298C16.1887 10.8733 16.3861 11.0707 16.6296 11.0707Z" fill="#DD5061"/>
<path d="M10.6467 9.11753C10.8901 9.11753 11.0875 8.92015 11.0875 8.67668C11.0875 8.4332 10.8901 8.23584 10.6467 8.23584C10.4032 8.23584 10.2058 8.4332 10.2058 8.67668C10.2058 8.92015 10.4032 9.11753 10.6467 9.11753Z" fill="#DD5061"/>
<path d="M11.3395 15.5414C11.583 15.5414 11.7804 15.344 11.7804 15.1005C11.7804 14.8571 11.583 14.6597 11.3395 14.6597C11.0961 14.6597 10.8987 14.8571 10.8987 15.1005C10.8987 15.344 11.0961 15.5414 11.3395 15.5414Z" fill="#DD5061"/>
<path d="M17.0075 12.2669C17.251 12.2669 17.4483 12.0696 17.4483 11.8261C17.4483 11.5826 17.251 11.3853 17.0075 11.3853C16.764 11.3853 16.5667 11.5826 16.5667 11.8261C16.5667 12.0696 16.764 12.2669 17.0075 12.2669Z" fill="#DD5061"/>
<path d="M11.5912 8.29917C11.8347 8.29917 12.0321 8.10181 12.0321 7.85834C12.0321 7.61486 11.8347 7.41748 11.5912 7.41748C11.3478 7.41748 11.1504 7.61486 11.1504 7.85834C11.1504 8.10181 11.3478 8.29917 11.5912 8.29917Z" fill="#DD5061"/>
<path d="M10.1427 15.0375C10.3862 15.0375 10.5836 14.8401 10.5836 14.5966C10.5836 14.3531 10.3862 14.1558 10.1427 14.1558C9.89927 14.1558 9.7019 14.3531 9.7019 14.5966C9.7019 14.8401 9.89927 15.0375 10.1427 15.0375Z" fill="#DD5061"/>
<path d="M17.0075 13.6527C17.2858 13.6527 17.5113 13.4271 17.5113 13.1488C17.5113 12.8706 17.2858 12.645 17.0075 12.645C16.7292 12.645 16.5037 12.8706 16.5037 13.1488C16.5037 13.4271 16.7292 13.6527 17.0075 13.6527Z" fill="#DD5061"/>
<path d="M12.788 7.85824C13.0663 7.85824 13.2918 7.63266 13.2918 7.35441C13.2918 7.07615 13.0663 6.85059 12.788 6.85059C12.5097 6.85059 12.2842 7.07615 12.2842 7.35441C12.2842 7.63266 12.5097 7.85824 12.788 7.85824Z" fill="#DD5061"/>
<path d="M9.13519 14.1566C9.41344 14.1566 9.63901 13.931 9.63901 13.6527C9.63901 13.3745 9.41344 13.1489 9.13519 13.1489C8.85693 13.1489 8.63135 13.3745 8.63135 13.6527C8.63135 13.931 8.85693 14.1566 9.13519 14.1566Z" fill="#DD5061"/>
<path d="M16.5666 14.9119C16.8448 14.9119 17.0704 14.6864 17.0704 14.4081C17.0704 14.1299 16.8448 13.9043 16.5666 13.9043C16.2883 13.9043 16.0627 14.1299 16.0627 14.4081C16.0627 14.6864 16.2883 14.9119 16.5666 14.9119Z" fill="#DD5061"/>
<path d="M14.2365 7.73227C14.5147 7.73227 14.7403 7.5067 14.7403 7.22845C14.7403 6.95019 14.5147 6.72461 14.2365 6.72461C13.9582 6.72461 13.7327 6.95019 13.7327 7.22845C13.7327 7.5067 13.9582 7.73227 14.2365 7.73227Z" fill="#DD5061"/>
<path d="M8.44232 12.8963C8.72057 12.8963 8.94613 12.6707 8.94613 12.3925C8.94613 12.1142 8.72057 11.8887 8.44232 11.8887C8.16406 11.8887 7.93848 12.1142 7.93848 12.3925C7.93848 12.6707 8.16406 12.8963 8.44232 12.8963Z" fill="#DD5061"/>
<path d="M15.685 16.1082C15.9632 16.1082 16.1888 15.8827 16.1888 15.6044C16.1888 15.3261 15.9632 15.1006 15.685 15.1006C15.4067 15.1006 15.1812 15.3261 15.1812 15.6044C15.1812 15.8827 15.4067 16.1082 15.685 16.1082Z" fill="#DD5061"/>
<path d="M15.685 8.11065C15.998 8.11065 16.2518 7.85689 16.2518 7.54385C16.2518 7.23081 15.998 6.97705 15.685 6.97705C15.3719 6.97705 15.1182 7.23081 15.1182 7.54385C15.1182 7.85689 15.3719 8.11065 15.685 8.11065Z" fill="#DD5061"/>
<path d="M8.1906 11.4481C8.50364 11.4481 8.7574 11.1943 8.7574 10.8813C8.7574 10.5682 8.50364 10.3145 8.1906 10.3145C7.87756 10.3145 7.62378 10.5682 7.62378 10.8813C7.62378 11.1943 7.87756 11.4481 8.1906 11.4481Z" fill="#DD5061"/>
<path d="M14.3625 17.0535C14.6755 17.0535 14.9293 16.7998 14.9293 16.4867C14.9293 16.1737 14.6755 15.9199 14.3625 15.9199C14.0494 15.9199 13.7957 16.1737 13.7957 16.4867C13.7957 16.7998 14.0494 17.0535 14.3625 17.0535Z" fill="#DD5061"/>
<path d="M17.0075 8.92901C17.3205 8.92901 17.5743 8.67525 17.5743 8.36221C17.5743 8.04917 17.3205 7.79541 17.0075 7.79541C16.6945 7.79541 16.4407 8.04917 16.4407 8.36221C16.4407 8.67525 16.6945 8.92901 17.0075 8.92901Z" fill="#DD5061"/>
<path d="M8.3793 9.87335C8.69234 9.87335 8.9461 9.61959 8.9461 9.30655C8.9461 8.99351 8.69234 8.73975 8.3793 8.73975C8.06626 8.73975 7.8125 8.99351 7.8125 9.30655C7.8125 9.61959 8.06626 9.87335 8.3793 9.87335Z" fill="#DD5061"/>
<path d="M12.788 17.6204C13.1358 17.6204 13.4178 17.3384 13.4178 16.9906C13.4178 16.6428 13.1358 16.3608 12.788 16.3608C12.4402 16.3608 12.1582 16.6428 12.1582 16.9906C12.1582 17.3384 12.4402 17.6204 12.788 17.6204Z" fill="#DD5061"/>
<path d="M18.141 10.2513C18.4888 10.2513 18.7708 9.9693 18.7708 9.62148C18.7708 9.27366 18.4888 8.9917 18.141 8.9917C17.7932 8.9917 17.5112 9.27366 17.5112 9.62148C17.5112 9.9693 17.7932 10.2513 18.141 10.2513Z" fill="#DD5061"/>
<path d="M9.07217 8.36211C9.41999 8.36211 9.70195 8.08014 9.70195 7.73232C9.70195 7.3845 9.41999 7.10254 9.07217 7.10254C8.72435 7.10254 8.44238 7.3845 8.44238 7.73232C8.44238 8.08014 8.72435 8.36211 9.07217 8.36211Z" fill="#DD5061"/>
<path d="M11.0246 17.6204C11.3724 17.6204 11.6543 17.3384 11.6543 16.9906C11.6543 16.6428 11.3724 16.3608 11.0246 16.3608C10.6767 16.3608 10.3948 16.6428 10.3948 16.9906C10.3948 17.3384 10.6767 17.6204 11.0246 17.6204Z" fill="#DD5061"/>
<path d="M18.8339 11.9524C19.1817 11.9524 19.4637 11.6705 19.4637 11.3227C19.4637 10.9748 19.1817 10.6929 18.8339 10.6929C18.4861 10.6929 18.2041 10.9748 18.2041 11.3227C18.2041 11.6705 18.4861 11.9524 18.8339 11.9524Z" fill="#DD5061"/>
<path d="M10.3317 7.03932C10.7143 7.03932 11.0244 6.72918 11.0244 6.34657C11.0244 5.96397 10.7143 5.65381 10.3317 5.65381C9.94908 5.65381 9.63892 5.96397 9.63892 6.34657C9.63892 6.72918 9.94908 7.03932 10.3317 7.03932Z" fill="#DD5061"/>
<path d="M9.26113 17.0535C9.64373 17.0535 9.95389 16.7433 9.95389 16.3607C9.95389 15.9781 9.64373 15.668 9.26113 15.668C8.87852 15.668 8.56836 15.9781 8.56836 16.3607C8.56836 16.7433 8.87852 17.0535 9.26113 17.0535Z" fill="#DD5061"/>
<path d="M19.0228 13.9046C19.4054 13.9046 19.7156 13.5944 19.7156 13.2118C19.7156 12.8292 19.4054 12.519 19.0228 12.519C18.6402 12.519 18.3301 12.8292 18.3301 13.2118C18.3301 13.5944 18.6402 13.9046 19.0228 13.9046Z" fill="#DD5061"/>
<path d="M12.0321 6.09499C12.4147 6.09499 12.7249 5.78484 12.7249 5.40224C12.7249 5.01964 12.4147 4.70947 12.0321 4.70947C11.6495 4.70947 11.3394 5.01964 11.3394 5.40224C11.3394 5.78484 11.6495 6.09499 12.0321 6.09499Z" fill="#DD5061"/>
<path d="M7.68665 15.8562C8.06925 15.8562 8.37942 15.5461 8.37942 15.1635C8.37942 14.7809 8.06925 14.4707 7.68665 14.4707C7.30405 14.4707 6.9939 14.7809 6.9939 15.1635C6.9939 15.5461 7.30405 15.8562 7.68665 15.8562Z" fill="#DD5061"/>
<path d="M18.5819 15.9192C18.9993 15.9192 19.3376 15.5808 19.3376 15.1635C19.3376 14.7461 18.9993 14.4077 18.5819 14.4077C18.1645 14.4077 17.8262 14.7461 17.8262 15.1635C17.8262 15.5808 18.1645 15.9192 18.5819 15.9192Z" fill="#DD5061"/>
<path d="M14.0475 5.78003C14.4649 5.78003 14.8032 5.44169 14.8032 5.0243C14.8032 4.60692 14.4649 4.26855 14.0475 4.26855C13.6301 4.26855 13.2917 4.60692 13.2917 5.0243C13.2917 5.44169 13.6301 5.78003 14.0475 5.78003Z" fill="#DD5061"/>
<path d="M6.49011 14.2195C6.9075 14.2195 7.24585 13.8811 7.24585 13.4638C7.24585 13.0464 6.9075 12.708 6.49011 12.708C6.07273 12.708 5.73438 13.0464 5.73438 13.4638C5.73438 13.8811 6.07273 14.2195 6.49011 14.2195Z" fill="#DD5061"/>
<path d="M17.5114 17.8088C17.9287 17.8088 18.2671 17.4705 18.2671 17.0531C18.2671 16.6357 17.9287 16.2974 17.5114 16.2974C17.094 16.2974 16.7556 16.6357 16.7556 17.0531C16.7556 17.4705 17.094 17.8088 17.5114 17.8088Z" fill="#DD5061"/>
<path d="M16.2518 6.09543C16.704 6.09543 17.0705 5.72888 17.0705 5.27672C17.0705 4.82455 16.704 4.45801 16.2518 4.45801C15.7997 4.45801 15.4331 4.82455 15.4331 5.27672C15.4331 5.72888 15.7997 6.09543 16.2518 6.09543Z" fill="#DD5061"/>
<path d="M5.79723 12.1413C6.24939 12.1413 6.61595 11.7748 6.61595 11.3226C6.61595 10.8705 6.24939 10.5039 5.79723 10.5039C5.34506 10.5039 4.97852 10.8705 4.97852 11.3226C4.97852 11.7748 5.34506 12.1413 5.79723 12.1413Z" fill="#DD5061"/>
<path d="M15.7479 19.3835C16.2001 19.3835 16.5666 19.017 16.5666 18.5648C16.5666 18.1127 16.2001 17.7461 15.7479 17.7461C15.2958 17.7461 14.9292 18.1127 14.9292 18.5648C14.9292 19.017 15.2958 19.3835 15.7479 19.3835Z" fill="#DD5061"/>
<path d="M18.3929 7.10277C18.8451 7.10277 19.2117 6.73623 19.2117 6.28406C19.2117 5.8319 18.8451 5.46533 18.3929 5.46533C17.9408 5.46533 17.5742 5.8319 17.5742 6.28406C17.5742 6.73623 17.9408 7.10277 18.3929 7.10277Z" fill="#DD5061"/>
<path d="M5.86021 9.81077C6.34716 9.81077 6.7419 9.416 6.7419 8.92906C6.7419 8.44211 6.34716 8.04736 5.86021 8.04736C5.37326 8.04736 4.97852 8.44211 4.97852 8.92906C4.97852 9.416 5.37326 9.81077 5.86021 9.81077Z" fill="#DD5061"/>
<path d="M13.5436 20.3913C14.0305 20.3913 14.4253 19.9966 14.4253 19.5096C14.4253 19.0227 14.0305 18.6279 13.5436 18.6279C13.0566 18.6279 12.6619 19.0227 12.6619 19.5096C12.6619 19.9966 13.0566 20.3913 13.5436 20.3913Z" fill="#DD5061"/>
<path d="M20.2193 8.80296C20.7063 8.80296 21.1011 8.40821 21.1011 7.92126C21.1011 7.43432 20.7063 7.03955 20.2193 7.03955C19.7324 7.03955 19.3376 7.43432 19.3376 7.92126C19.3376 8.40821 19.7324 8.80296 20.2193 8.80296Z" fill="#DD5061"/>
<path d="M6.61606 7.48017C7.13779 7.48017 7.56075 7.05723 7.56075 6.5355C7.56075 6.01377 7.13779 5.59082 6.61606 5.59082C6.09433 5.59082 5.67139 6.01377 5.67139 6.5355C5.67139 7.05723 6.09433 7.48017 6.61606 7.48017Z" fill="#DD5061"/>
<path d="M10.9615 20.7062C11.4833 20.7062 11.9062 20.2833 11.9062 19.7616C11.9062 19.2398 11.4833 18.8169 10.9615 18.8169C10.4398 18.8169 10.0168 19.2398 10.0168 19.7616C10.0168 20.2833 10.4398 20.7062 10.9615 20.7062Z" fill="#DD5061"/>
<path d="M21.4789 11.197C22.0006 11.197 22.4235 10.774 22.4235 10.2523C22.4235 9.73056 22.0006 9.30762 21.4789 9.30762C20.9571 9.30762 20.5342 9.73056 20.5342 10.2523C20.5342 10.774 20.9571 11.197 21.4789 11.197Z" fill="#DD5061"/>
<path d="M8.2535 5.34002C8.81001 5.34002 9.26116 4.88888 9.26116 4.33236C9.26116 3.77585 8.81001 3.32471 8.2535 3.32471C7.69699 3.32471 7.24585 3.77585 7.24585 4.33236C7.24585 4.88888 7.69699 5.34002 8.2535 5.34002Z" fill="#DD5061"/>
<path d="M8.2535 20.1393C8.81001 20.1393 9.26116 19.6882 9.26116 19.1317C9.26116 18.5752 8.81001 18.124 8.2535 18.124C7.69699 18.124 7.24585 18.5752 7.24585 19.1317C7.24585 19.6882 7.69699 20.1393 8.2535 20.1393Z" fill="#DD5061"/>
<path d="M22.0457 14.0304C22.6023 14.0304 23.0534 13.5793 23.0534 13.0228C23.0534 12.4663 22.6023 12.0151 22.0457 12.0151C21.4892 12.0151 21.0381 12.4663 21.0381 13.0228C21.0381 13.5793 21.4892 14.0304 22.0457 14.0304Z" fill="#DD5061"/>
<path d="M10.5836 3.76431C11.1749 3.76431 11.6542 3.28496 11.6542 2.69367C11.6542 2.10237 11.1749 1.62305 10.5836 1.62305C9.99229 1.62305 9.51294 2.10237 9.51294 2.69367C9.51294 3.28496 9.99229 3.76431 10.5836 3.76431Z" fill="#DD5061"/>
<path d="M5.73445 18.6911C6.32574 18.6911 6.80508 18.2117 6.80508 17.6204C6.80508 17.0292 6.32574 16.5498 5.73445 16.5498C5.14315 16.5498 4.66382 17.0292 4.66382 17.6204C4.66382 18.2117 5.14315 18.6911 5.73445 18.6911Z" fill="#DD5061"/>
<path d="M21.6678 17.0534C22.2591 17.0534 22.7384 16.574 22.7384 15.9827C22.7384 15.3915 22.2591 14.9121 21.6678 14.9121C21.0765 14.9121 20.5972 15.3915 20.5972 15.9827C20.5972 16.574 21.0765 17.0534 21.6678 17.0534Z" fill="#DD5061"/>
<path d="M13.4808 2.94592C14.1069 2.94592 14.6144 2.43839 14.6144 1.81231C14.6144 1.18624 14.1069 0.678711 13.4808 0.678711C12.8547 0.678711 12.3472 1.18624 12.3472 1.81231C12.3472 2.43839 12.8547 2.94592 13.4808 2.94592Z" fill="#DD5061"/>
<path d="M3.71906 16.423C4.34514 16.423 4.85266 15.9154 4.85266 15.2894C4.85266 14.6633 4.34514 14.1558 3.71906 14.1558C3.09299 14.1558 2.58545 14.6633 2.58545 15.2894C2.58545 15.9154 3.09299 16.423 3.71906 16.423Z" fill="#DD5061"/>
<path d="M20.3453 19.9498C20.9713 19.9498 21.4789 19.4423 21.4789 18.8162C21.4789 18.1901 20.9713 17.6826 20.3453 17.6826C19.7192 17.6826 19.2117 18.1901 19.2117 18.8162C19.2117 19.4423 19.7192 19.9498 20.3453 19.9498Z" fill="#DD5061"/>
<path d="M16.7554 3.07188C17.4163 3.07188 17.952 2.53615 17.952 1.8753C17.952 1.21444 17.4163 0.678711 16.7554 0.678711C16.0946 0.678711 15.5588 1.21444 15.5588 1.8753C15.5588 2.53615 16.0946 3.07188 16.7554 3.07188Z" fill="#DD5061"/>
<path d="M2.39654 13.4635C3.05739 13.4635 3.59312 12.9278 3.59312 12.2669C3.59312 11.606 3.05739 11.0703 2.39654 11.0703C1.73568 11.0703 1.19995 11.606 1.19995 12.2669C1.19995 12.9278 1.73568 13.4635 2.39654 13.4635Z" fill="#DD5061"/>
<path d="M18.0782 22.4689C18.739 22.4689 19.2748 21.9331 19.2748 21.2723C19.2748 20.6114 18.739 20.0757 18.0782 20.0757C17.4173 20.0757 16.8816 20.6114 16.8816 21.2723C16.8816 21.9331 17.4173 22.4689 18.0782 22.4689Z" fill="#DD5061"/>
<path d="M19.9673 4.20566C20.663 4.20566 21.2269 3.64173 21.2269 2.94609C21.2269 2.25045 20.663 1.68652 19.9673 1.68652C19.2717 1.68652 18.7078 2.25045 18.7078 2.94609C18.7078 3.64173 19.2717 4.20566 19.9673 4.20566Z" fill="#DD5061"/>
<path d="M2.08159 10.0626C2.77723 10.0626 3.34116 9.49866 3.34116 8.80302C3.34116 8.10738 2.77723 7.54346 2.08159 7.54346C1.38595 7.54346 0.822021 8.10738 0.822021 8.80302C0.822021 9.49866 1.38595 10.0626 2.08159 10.0626Z" fill="#DD5061"/>
<path d="M14.9292 24.3589C15.6597 24.3589 16.2518 23.7668 16.2518 23.0364C16.2518 22.306 15.6597 21.7139 14.9292 21.7139C14.1988 21.7139 13.6067 22.306 13.6067 23.0364C13.6067 23.7668 14.1988 24.3589 14.9292 24.3589Z" fill="#DD5061"/>
<path d="M22.9275 6.4732C23.658 6.4732 24.2501 5.88108 24.2501 5.15066C24.2501 4.42023 23.658 3.82812 22.9275 3.82812C22.1971 3.82812 21.605 4.42023 21.605 5.15066C21.605 5.88108 22.1971 6.4732 22.9275 6.4732Z" fill="#DD5061"/>
<path d="M2.90019 6.4732C3.63061 6.4732 4.22273 5.88108 4.22273 5.15066C4.22273 4.42023 3.63061 3.82812 2.90019 3.82812C2.16976 3.82812 1.57764 4.42023 1.57764 5.15066C1.57764 5.88108 2.16976 6.4732 2.90019 6.4732Z" fill="#DD5061"/>
</svg>
