<svg width="31" height="31" viewBox="0 0 31 31" fill="none" xmlns="http://www.w3.org/2000/svg">
<path d="M15.6113 30.1357C23.8956 30.1357 30.6113 23.42 30.6113 15.1357C30.6113 6.85146 23.8956 0.135742 15.6113 0.135742C7.32706 0.135742 0.611328 6.85146 0.611328 15.1357C0.611328 23.42 7.32706 30.1357 15.6113 30.1357Z" fill="#DD5061"/>
<path d="M22.9225 9.02499C22.8558 8.84721 22.7892 8.80278 22.7003 8.78055C22.4558 8.69166 22.0781 8.82501 22.0781 8.82501C22.0781 8.82501 8.05584 13.8694 7.25584 14.425C7.07806 14.5361 7.03361 14.625 6.98917 14.6917C6.85583 15.0917 7.27805 15.2695 7.27805 15.2695L10.9003 16.4472C10.9003 16.4472 11.0336 16.4694 11.0781 16.4472C11.9003 15.9361 19.3447 11.225 19.7669 11.0695C19.8336 11.0472 19.8781 11.0694 19.8781 11.1139C19.7003 11.7139 13.2336 17.4694 13.2336 17.4694C13.2336 17.4694 13.2114 17.4917 13.1892 17.5361L12.8558 21.1139C12.8558 21.1139 12.7225 22.2028 13.8114 21.1139C14.5892 20.3361 15.3447 19.6917 15.7003 19.3806C16.9447 20.2472 18.2781 21.1806 18.8558 21.6917C19.1447 21.9361 19.3892 21.9806 19.5892 21.9806C20.1447 21.9583 20.3003 21.3583 20.3003 21.3583C20.3003 21.3583 22.8558 11.0694 22.9447 9.69166C22.9447 9.55833 22.9669 9.46946 22.9669 9.38057C22.9447 9.22501 22.9447 9.09166 22.9225 9.02499Z" fill="white"/>
</svg>
