<svg width="31" height="31" viewBox="0 0 31 31" fill="none" xmlns="http://www.w3.org/2000/svg">
<path d="M15.123 30.1357C23.4073 30.1357 30.123 23.42 30.123 15.1357C30.123 6.85147 23.4073 0.135742 15.123 0.135742C6.83878 0.135742 0.123047 6.85147 0.123047 15.1357C0.123047 23.42 6.83878 30.1357 15.123 30.1357Z" fill="#DD5061"/>
<path d="M24.7008 10.3133C24.4786 9.44661 23.7897 8.77995 22.9231 8.5355C21.3675 8.11328 15.1008 8.11328 15.1008 8.11328C15.1008 8.11328 8.8564 8.11328 7.27862 8.5355C6.41195 8.75772 5.74529 9.44661 5.50084 10.3133C5.07862 11.8688 5.07861 15.1355 5.07861 15.1355C5.07861 15.1355 5.07862 18.38 5.50084 19.9577C5.72306 20.8244 6.41195 21.4911 7.27862 21.7355C8.83417 22.1577 15.1008 22.1577 15.1008 22.1577C15.1008 22.1577 21.3453 22.1577 22.9231 21.7355C23.7897 21.5133 24.4564 20.8244 24.7008 19.9577C25.1231 18.4022 25.1231 15.1355 25.1231 15.1355C25.1231 15.1355 25.1231 11.8688 24.7008 10.3133ZM13.1231 18.1355V12.1355L18.3231 15.1355L13.1231 18.1355Z" fill="white"/>
</svg>
