<?xml version="1.0" encoding="utf-8"?>
<!-- Generator: Adobe Illustrator 26.0.1, SVG Export Plug-In . SVG Version: 6.00 Build 0)  -->
<svg version="1.1" id="Layer_1" xmlns="http://www.w3.org/2000/svg" xmlns:xlink="http://www.w3.org/1999/xlink" x="0px" y="0px"
	 viewBox="0 0 297.6 396.9" style="enable-background:new 0 0 297.6 396.9;" xml:space="preserve">
<style type="text/css">
	.st0{display:none;}
	.st1{display:none;fill:none;stroke:#000000;stroke-miterlimit:10;}
	.st2{fill:#DD5061;}
	.st3{fill:#FFCC99;}
	.st4{fill:#005792;}
</style>
<g id="Layer_2_00000021107674182179260990000000882451360082432945_" class="st0">
</g>
<line class="st1" x1="1365" y1="-2041.9" x2="1365" y2="-1823.3"/>
<line class="st1" x1="1294.3" y1="-1930.8" x2="1448.5" y2="-1930.8"/>
<g>
	<g>
		<path class="st2" d="M154.4,56.8c28.4-0.2,48.5-16.5,59.3,34.1c10.8,50.5,7.5,147.1-6.3,168.4c-13.9,21.3-26.2,31-54.7,31.6
			c-28.4,0.6-59.7-52.2-58.1-93.5S89,57.3,154.4,56.8z"/>
	</g>
	<g>
		<path class="st3" d="M198,290.5c-1.8,4.3-8.2,12-31.3,16c-38.9,6.6-87.7-16.8-102-25.2c-4.8-21.7,14.1-53.6,14.1-53.6l76.1,29
			C169,273.9,189.4,285.9,198,290.5z"/>
	</g>
	<g>
		<path d="M152.1,308.7c-42.2,0-87.4-26.2-87.9-26.5c-0.3-0.2-0.6-0.4-0.9-0.6c-0.5-0.3-0.9-0.5-1.2-0.8c-0.5-0.3-0.6-0.9-0.3-1.4
			c0.3-0.5,0.9-0.6,1.4-0.3c0.4,0.2,0.7,0.5,1.2,0.7c0.3,0.2,0.6,0.4,0.9,0.6c0.5,0.3,45.2,26.2,86.8,26.2c4.9,0,9.8-0.4,14.5-1.2
			c22.6-3.9,28.8-11.3,30.5-15.4c0.7-1.6,0.6-2.6,0.6-2.6c0-0.5,0.4-1,0.9-1.1c0.6,0,1,0.4,1.1,0.9c0,0.1,0.1,1.5-0.8,3.6
			c-1.9,4.4-8.5,12.5-32.1,16.6C162.1,308.3,157.1,308.7,152.1,308.7z"/>
	</g>
	<g>
		<path class="st3" d="M177.4,229.8c-15.7,18.8-9.1,43.6-7.8,51.2c1.3,7.6-41.3,9.9-57.1-1.5c-15.8-11.4-18.4-23.9-15.8-32.3
			s15.6-49.1,12.2-73.9S177.4,229.8,177.4,229.8z"/>
	</g>
	<g>
		<path class="st4" d="M177.4,229.8c-3.6,5.4-9.1,10.6-10,29.1c-0.1,1.7-37.2-30-40.6-54.7C123.4,179.5,177.4,229.8,177.4,229.8z"/>
	</g>
	<g>
		<path class="st2" d="M228.8,111.9c3,26.3,5.1,86.9,2.1,123.2c-2.8,33.9-12.6,55.8-17.1,97.7c-8.6-15.2-6-20.3-4.6-41.9
			c-2.6,8.1-2.8,39.8-14.2,62c4.3-31.4-10.2-52.3-11.4-70.6c-2.4-36,0.2-83.7,0-88.4s25.4-93.1,30-103
			C218.3,81,228.8,111.9,228.8,111.9z"/>
	</g>
	<g>
		<path class="st2" d="M188.7,29.2c-20-14.3-86.6-8.1-110.9,54c-24.4,62.5-18.6,135.6-25.9,166c-12.8,53.2,13.9,95.2,13.9,95.2
			l-2.3-28.8c0,0,15.1,34.9,24.1,41c4-15-4-73.7,7.1-89.9c5-7.4,2.2-36.5,3.4-41C99.3,221.3,226.1,55.9,188.7,29.2z"/>
	</g>
	<g>
		<path class="st3" d="M190.7,43.7c16.9,5.3,38.1,29.5,38.1,61.8c0,11.8-6.1,26.8-3.8,40.8c5.9,35.3-20.4,73.7-20.4,73.7
			s-8.6,17.6-23.7,17.4c-12.2-0.2-36.9-7.4-53.3-30c-16.5-22.6-42.5-80.8-29.3-118.2C111.4,52,140.4,28,190.7,43.7z"/>
	</g>
	<g>
		<path d="M192.6,191.8c-0.2,0-0.5-0.1-0.7-0.3c-0.4-0.4-0.4-1,0-1.4l0.7-0.7c2.6-2.6,6.5-6.6,6.4-11.1c0-0.9-0.6-2.2-1.3-3.9
			c-0.8-1.9-1.9-4.3-2.6-7.4c-0.3-1.3-0.8-2.9-1.3-4.8c-1.9-7-4.6-16.5-4.6-20.8c0-0.6,0.4-1,1-1s1,0.4,1,1c0,4,2.7,13.8,4.5,20.3
			c0.5,1.9,1,3.6,1.3,4.9c0.8,2.9,1.7,5.2,2.5,7.1c0.8,1.9,1.4,3.3,1.5,4.6c0.1,5.3-4.3,9.8-7,12.5l-0.7,0.7
			C193.1,191.7,192.9,191.8,192.6,191.8z"/>
	</g>
	<g>
		<g>
			<path d="M194.6,147.4c2.2-3.1,4.2-6.9,7.8-8.8c7.2-3.5,14.7,1.1,14.9,9.1c0,0.6-0.4,1-1,1.1c-0.6,0-1.1-0.5-1.1-1.1
				c0-8.5-9.4-11.6-15.2-5.7c-1.8,1.7-3.1,3.9-4.7,6C195.1,148.5,194.2,147.9,194.6,147.4L194.6,147.4z"/>
		</g>
	</g>
	<g>
		<g>
			<path d="M170.9,148c-3.4-3.9-8-9.1-13.5-8.7c-2.8,0.1-5.3,1-7.2,3c-1.5,1.5-2.6,3.6-4.3,5.1c-0.8,0.7-2.9,2.3-3.6,0.7
				c-0.2-0.6,0.1-1.2,0.7-1.3c1-0.4,1.9-1.3,2.7-2.5c2.7-4.1,6.3-7,11.5-7c3.1-0.3,6.3,1.5,8.6,3.4c2.3,2,4.2,4.3,5.9,6.8
				C172.1,147.9,171.3,148.5,170.9,148L170.9,148z"/>
		</g>
	</g>
	<g>
		<path d="M199.5,207.1c-0.9,0-1.8-0.2-2.7-0.4c-1.9-0.4-3.8-0.8-6.9,0.2c-0.2,0.1-0.4,0.1-0.5,0c-3.2-0.8-6.7-0.5-10-0.3
			c-4.5,0.3-9.1,0.7-13.1-1.6c-0.5-0.3-0.6-0.9-0.4-1.4c0.3-0.5,0.9-0.6,1.4-0.4c3.4,2,7.6,1.7,11.9,1.4c3.4-0.3,6.9-0.5,10.3,0.3
			c3.5-1.1,5.9-0.6,7.7-0.2c1.7,0.4,2.9,0.6,4.6-0.3c0.5-0.3,1.1-0.1,1.4,0.4s0.1,1.1-0.4,1.4C201.6,206.9,200.5,207.1,199.5,207.1z
			"/>
	</g>
	<g>
		<path d="M189.5,203.6c-0.1,0-0.2,0-0.3-0.1c-0.9-0.6-3.5-2.2-4.7-2.1c-0.3,0-0.5-0.2-0.5-0.5c0-0.3,0.2-0.5,0.5-0.5
			c1.5-0.1,4.2,1.5,5,2.1c1-0.6,3.6-2.1,4.8-2.1c0.3,0,0.5,0.2,0.5,0.5s-0.2,0.5-0.5,0.5c-0.8,0-3.2,1.3-4.5,2.1
			C189.7,203.6,189.6,203.6,189.5,203.6z"/>
	</g>
	<g>
		<circle cx="204.7" cy="144.2" r="5.4"/>
	</g>
	<g>
		<circle cx="154.4" cy="144.2" r="5.4"/>
	</g>
	<g>
		<g>
			<path d="M194.1,130.9c6.8-1.6,15.3-5.2,21.7-0.5c1.9,1.7,3.5,3.4,5,5.5c0.2,0.3,0.2,0.7-0.2,1c-0.3,0.2-0.8,0.1-1-0.2
				c-5.8-7-9.2-7.5-17.9-5c-2.3,0.7-4.4,1.5-6.8,2.3c-0.8,0.3-1.7-0.2-2-1.1C192.6,132.1,193.2,131.1,194.1,130.9L194.1,130.9z"/>
		</g>
	</g>
	<g>
		<g>
			<path d="M172.7,134c-11.6-3.7-24.4-1.4-35.7,2.8c-1.3,0.6-2.2-1.4-0.9-2c8.9-3.6,18.3-5.8,27.9-5.5c3.2,0.2,6.4,0.7,9.6,1.6
				c0.8,0.2,1.3,1.1,1.1,2C174.6,133.8,173.6,134.3,172.7,134L172.7,134z"/>
		</g>
	</g>
	<g>
		<path class="st2" d="M183.4,135.8c13.3-21.9,17.2-68.4,16.6-73.8c-0.7-5.4,8.4-14.2-6.5-21.2c-33.8-15.8-85.4,0.9-96.5,34
			s-9.2,75-9,95.8c0.1,18.8-10,110.4-10.1,129.8c-0.1,22.2,17.9,35.4,17.9,35.4s5.8-47.2,3.7-60.2c9.9,25.2,24.4,35.3,29.6,47.9
			c-12.3-47.9-5-144.7-0.8-157.3c4.2-12.6,17.9-45.5,17.9-45.5l-3.3,19.5C143,140.1,166.7,135.8,183.4,135.8z"/>
	</g>
	<g>
		<path class="st4" d="M189.2,216.1c-2.8,0-5.8-0.4-8-1c-0.3-0.1-0.4-0.3-0.4-0.6c0.1-0.3,0.3-0.4,0.6-0.4c3,0.8,7.8,1.3,11,0.7
			c0.3-0.1,0.5,0.1,0.6,0.4c0.1,0.3-0.1,0.5-0.4,0.6C191.6,216,190.4,216.1,189.2,216.1z"/>
	</g>
	<g>
		<path class="st2" d="M193.5,60.4c16.5,35.3,23.6,77.8,23.6,77.8s0.7-18.9,0-22.6s5.6,33.6,6.1,38.6c0.5,4.9,24.2-49,3.2-93.7
			c-11.1-23.6-32.6-32.5-37.7-31.3S193.5,60.4,193.5,60.4z"/>
	</g>
</g>
</svg>
