<?xml version="1.0" encoding="utf-8"?>
<!-- Generator: Adobe Illustrator 26.0.1, SVG Export Plug-In . SVG Version: 6.00 Build 0)  -->
<svg version="1.1" id="Layer_1" xmlns="http://www.w3.org/2000/svg" xmlns:xlink="http://www.w3.org/1999/xlink" x="0px" y="0px"
	 viewBox="0 0 297.6 396.9" style="enable-background:new 0 0 297.6 396.9;" xml:space="preserve">
<style type="text/css">
	.st0{display:none;}
	.st1{display:none;fill:none;stroke:#000000;stroke-miterlimit:10;}
	.st2{fill:#665E5D;}
	.st3{fill:#FFCC99;}
	.st4{fill:#005792;}
</style>
<g id="Layer_2_00000078034104030470398130000016465489259324744585_" class="st0">
</g>
<line class="st1" x1="1088.4" y1="1369.5" x2="1088.4" y2="1588"/>
<line class="st1" x1="1017.6" y1="1480.6" x2="1171.8" y2="1480.6"/>
<g>
	<g>
		<path class="st2" d="M149.3,70.7c11.8-1.8,51.8,6.5,63,29.1s10.9,71.2,21.2,88.1c10.3,16.9,38,45.6,29,70.3
			c-9.1,24.7-7.8,33,0,32.3c7.8-0.7,2.8,7.3-5.2,10c-8,2.7-12.8,12.3-16,17.6c-3.2,5.4-64-6.3-82.1-4.3
			c-18.1,1.9-41.7,11.7-55.8,3.3c-14.2-8.4-17.2-14.7-29.9-13.5c-12.6,1.1-10.7,1.1-22.2,6.1S23,335.4,36,302
			c13-33.3,27.2-33.7,28.3-52.1c1.1-18.4,3.1-45.1,3.8-69.7c0.8-24.5,5.8-46.8,19.1-72C101,82.2,121.2,75,149.3,70.7z"/>
	</g>
	<g>
		<path class="st3" d="M226.1,307.1c-6.6,13.5-21,27.1-42.1,27.9c-40.7,1.5-74.3-17.3-90.2-28.3l0,0c-4.4-3.4-7.8-6.2-10.1-7.6
			c-11.1-7.3,29.6-4.8,40.2-8.5s2.3-42.8,0.8-60.5c-1.5-17.6,70.2-19.3,67.1,18c-1.9,22.8,3.2,54,10.2,54.7
			C206.4,303.2,216.7,305,226.1,307.1z"/>
	</g>
	<g>
		<path class="st4" d="M191.9,248c-0.4,5.4,0.3,19.4,0.7,25.1c0.4,5.9-54.5-22.7-56.4-38.8C135.1,224.8,194.9,210.8,191.9,248z"/>
	</g>
	<g>
		<path class="st3" d="M118.8,217.5c0,0-8.3,5.9-12.4,3.5c-3.8-2.2-8.1-4.8-10.6-8.6c-4.1-6.2-14.5-21.4-11.6-34.4
			c2.1-9.6,14.2,2.2,15.3,4.6C100.5,185,118.8,217.5,118.8,217.5z"/>
	</g>
	<g>
		<path class="st3" d="M151.5,80c16.1-0.9,54.2,7.4,61,33c3.5,13.2,2.7,33.9,5.9,46.7c1.7,6.9,7.1,14.7,7.5,18.5
			c1.4,13.8-4.8,64.5-25.4,76.3s-64.3-7.7-75.8-24.5c-11.5-16.9-38.9-51.2-31.3-87.2S101.7,82.9,151.5,80z"/>
	</g>
	<g>
		<circle cx="200.8" cy="165" r="4.5"/>
	</g>
	<g>
		<circle cx="147.2" cy="175.5" r="4.9"/>
	</g>
	<g>
		<path d="M191.9,170.7c-0.1,0-0.2,0-0.2,0c-0.5-0.1-0.9-0.7-0.7-1.2c0.1-0.3,2.2-8.5,9.8-9.9c7.5-1.5,12.2,3.5,12.4,3.7
			c0.4,0.4,0.4,1,0,1.4c-0.4,0.4-1,0.4-1.4,0c-0.2-0.2-4.2-4.4-10.6-3.1c-6.3,1.2-8.2,8.4-8.2,8.5
			C192.8,170.4,192.4,170.7,191.9,170.7z"/>
	</g>
	<g>
		<path d="M136.2,181.3c-0.2,0-0.3,0-0.5-0.1c-0.5-0.3-0.6-0.9-0.4-1.4c0.2-0.3,4.1-6.8,11.7-9.7c10.6-4.1,16.1,5,16.1,5.1
			c0.3,0.5,0.1,1.1-0.4,1.4c-0.5,0.3-1.1,0.1-1.4-0.4c-0.2-0.3-4.7-7.7-13.7-4.3c-7,2.6-10.7,8.8-10.7,8.9
			C136.9,181.1,136.6,181.3,136.2,181.3z"/>
	</g>
	<g>
		<g>
			<path d="M190.5,159.1c4.3-3.1,8.5-6,13.4-8.1c3.9-1.5,8-2,12.2-2.1c0.6,0,1,0.4,1,1s-0.5,1-1,1c-3.8,0.2-7.7,0.8-11.2,2.3
				c-2.5,1.2-4.8,2.6-7.1,4.2c-1.9,1.3-3.7,2.6-5.4,4C190.7,162.5,189,160.3,190.5,159.1L190.5,159.1z"/>
		</g>
	</g>
	<g>
		<g>
			<path d="M165.2,164c-7.9-0.6-16.1-1.5-24.1-0.4c-4.6,1-8.7,3.8-12.2,6.8c-1,0.9-2.4-0.5-1.4-1.5c5.1-4.4,11.3-7.9,18.2-7.9
				c6.6-0.3,13.1-0.1,19.7,0.2C167.3,161.4,167.1,164.2,165.2,164L165.2,164z"/>
		</g>
	</g>
	<g>
		<path d="M168.5,228.4L168.5,228.4c-0.1-0.5,0.3-1.1,0.8-1.2c2.9-0.5,11.2-2,13.9-2.5c1.5-0.2,2.9-0.3,4.5-0.4
			c2-0.1,4.1-0.2,6.2-0.7c2.2-0.5,3.1-1.1,4-1.6c0.6-0.4,1.1-0.7,1.9-1c2-0.7,5.8-1,6-1c0.5,0,1,0.4,1.1,0.9c0,0.6-0.4,1-0.9,1.1
			c0,0-3.7,0.2-5.4,0.8c-0.6,0.2-1,0.5-1.5,0.8c-1,0.6-2.2,1.4-4.7,1.9c-2.2,0.5-4.4,0.6-6.5,0.7c-1.5,0.1-2.9,0.2-4.2,0.4
			c-2.7,0.5-11,2-13.9,2.5C169.1,229.3,168.6,229,168.5,228.4z"/>
	</g>
	<g>
		<path d="M193.8,219.9c-0.4,0-1,0-1.7,0c-0.7,0-1.5,0-2.3,0c-0.3,0-0.5-0.2-0.5-0.5s0.2-0.5,0.5-0.5c0.8,0,1.6,0,2.4,0.1
			c1.1,0,2.3,0.1,2.6,0c0.3-0.1,1.4-1,2.2-1.7c0.2-0.2,0.5-0.2,0.7,0c0.2,0.2,0.2,0.5,0,0.7c-0.4,0.4-1.9,1.7-2.6,1.9
			C194.8,219.9,194.4,219.9,193.8,219.9z"/>
	</g>
	<g>
		<path class="st4" d="M191.1,233.9l0-1l0.4,0c2.3-0.1,5.2-0.2,7.4-2.2l0.7,0.7c-2.4,2.2-5.5,2.3-8,2.4L191.1,233.9z"/>
	</g>
	<g>
		<path d="M190.1,206.5c-0.4,0-0.7-0.2-0.9-0.6c-0.2-0.5,0-1.1,0.5-1.3c6.1-3,10.1-5.7,10.1-9.2c0-0.9-1.8-3.7-3.8-6.7
			c-3.2-4.8-7.5-11.3-10.7-19.3c-0.2-0.5,0-1.1,0.5-1.3c0.5-0.2,1.1,0,1.3,0.5c3.2,7.8,7.4,14.2,10.6,18.9c2.8,4.2,4.1,6.3,4.1,7.8
			c0,5-5.6,8.2-11.3,11C190.4,206.5,190.3,206.5,190.1,206.5z"/>
	</g>
	<g>
		<path class="st2" d="M153.3,94.5c0,0,8.8,3.8,14.2,4.6c2.7,0.4,10.2,1.5,17.2,2.5c11.2,1.7,21.3,8,27.5,17.5
			c4.1,6.3,5.6,12.2,6.5,19.2c1.5,12.3,1.1-22.6-3.9-32.7s-1.4-16.4-28.5-25.6s-40.8-13.7-37-3.5C153.1,86.8,153.3,94.5,153.3,94.5z
			"/>
	</g>
	<g>
		<path d="M179.7,336.1c-38.8,0-70.6-17.8-86.5-28.6c-6.5-4.4-10-7.5-10.2-7.7c-0.4-0.4-0.4-1-0.1-1.4c0.4-0.4,1-0.5,1.4-0.1
			c0,0,3.6,3.2,10,7.5c16.2,11.1,49.4,29.6,89.6,28.2c26.2-1,38.2-21.2,41.2-27.3c0.2-0.5,0.8-0.7,1.3-0.5c0.5,0.2,0.7,0.8,0.5,1.3
			c-6.6,13.2-21.3,27.6-43,28.5C182.6,336.1,181.1,336.1,179.7,336.1z"/>
	</g>
	<g>
		<path class="st2" d="M162.3,94.3c-6.6,9.7-50.4,21.6-53.5,40.2c-4.4,26.6,0,47.7-4.3,52.8c-3.1,3.7-7.5-11.7-9.9-6.7
			c-8.7,17.4,0.8,37.4,4,51.5c4.6,20.2,7.5,10,15,41.9c7.5,31.9,14.2,32.7,4.6,44.2s-18.6,3.8-26.1-3.4
			c-7.5-7.1-27.7-11.9-23.6-40.8c4.1-28.9,8.7-97.5,13.3-119.9s13.7-57.6,28.3-66.3c14.6-8.7,43-23.2,49-17
			C165.1,77.1,162.3,94.3,162.3,94.3z"/>
	</g>
	<g>
		<circle class="st4" cx="109.4" cy="219.5" r="4.3"/>
	</g>
</g>
</svg>
