<?xml version="1.0" encoding="utf-8"?>
<!-- Generator: Adobe Illustrator 26.0.1, SVG Export Plug-In . SVG Version: 6.00 Build 0)  -->
<svg version="1.1" id="Layer_1" xmlns="http://www.w3.org/2000/svg" xmlns:xlink="http://www.w3.org/1999/xlink" x="0px" y="0px"
	 viewBox="0 0 297.6 396.9" style="enable-background:new 0 0 297.6 396.9;" xml:space="preserve">
<style type="text/css">
	.st0{display:none;}
	.st1{display:none;fill:none;stroke:#000000;stroke-miterlimit:10;}
	.st2{fill:#665E5D;}
	.st3{fill:#FFCC99;}
	.st4{fill:#005792;}
	.st5{fill:#FFFFFF;}
	.st6{fill:#0F517A;}
</style>
<g id="Layer_2_00000021107674182179260990000000882451360082432945_" class="st0">
</g>
<line class="st1" x1="1351.7" y1="-2035.2" x2="1351.7" y2="-1816.6"/>
<line class="st1" x1="1281" y1="-1924.1" x2="1435.2" y2="-1924.1"/>
<g>
	<g>
		<path class="st2" d="M95.6,231.9c-2.3,6.8-5.6,13.7-3,19.4s4.6,6.6,7,10.4c2.5,3.9,8.2,4,12.5,5.3c4.3,1.2,71.3-1.7,77.1-3.3
			c5.8-1.6,9-15.4,15-25.3s9.7-7.9,12.3-18.8c2.6-10.8-1.6-8.2,3.6-13.9c5.3-5.7,22.4-49.3,15.8-62.1s-15.6-46.2-38.6-53.1
			s-72.6-22.1-88.7-9.1s-39.3,40.2-41.4,55.1c-2.1,14.9-1.2,47.3,3.5,54.2c4.8,6.8,7.7,22.3,11.9,28.6
			C86.8,225.6,95.6,231.9,95.6,231.9z"/>
	</g>
	<g>
		<path class="st3" d="M223.4,314.2c-10.2,10-48.6,43.4-102.5,36.1c-28.4-3.8-40.5-26.5-43.1-32.1c11.9-7.9,27.6-17.6,30-28.6
			c2.9-13.4,3.2-33.7,0-44.1c0,0,81.8-15.3,81.5-10.5c-0.3,4.7-1.4,42.4,6.5,57.3C201.5,303.2,218.4,307.5,223.4,314.2z"/>
	</g>
	<g>
		<path class="st4" d="M107.7,245.5c2.2,7.2,1.7,30.7,0.9,41.7c-0.4,4.9,62.4-2.2,71-36c2.4-9.5,4.5-9.8,4.6-11.7
			C184.5,234.9,107.7,245.5,107.7,245.5z"/>
	</g>
	<g>
		<path class="st3" d="M153.7,66c15.3-0.3,65.8,10,71.9,54c4,29-15.4,82.6-26,112.2c-0.9,2.4-2.4,5.2-4.4,8.2
			c-10.6,15.6-35.5,35.9-58.6,33.1c-22.5-2.8-50.1-31-52-54.8s-6.9-72.1-3.2-94.7C85.3,100.5,85.6,67.4,153.7,66z"/>
	</g>
	<g>
		<g>
			<path d="M126.2,146.8c-2.9-3.4-8.8-4.5-13.3-5.3c-5.2-0.8-10.6-1-16-0.9c-1.3,0-1.4-1.9-0.1-2.1c8.2-0.7,16.7-1.2,24.9,0.8
				c3.1,0.8,5.9,1.9,8.3,4.4C132.3,146.2,128.3,149.5,126.2,146.8L126.2,146.8z"/>
		</g>
	</g>
	<g>
		<path d="M129.5,168.9c-0.3,0-0.6-0.1-0.8-0.3c0,0-4.2-4.5-8.4-7.2c-1.1-0.7-2.3-1.3-3.7-1.8c-1.5-0.5-3.1-0.5-5.2-0.2
			c-2.7,0.5-5.2,1.7-7,2.5c-0.8,0.4-1.5,0.7-2.1,0.9c-0.5,0.2-1.1-0.1-1.3-0.6c-0.2-0.5,0.1-1.1,0.6-1.3c0.5-0.2,1.1-0.5,1.9-0.8
			c1.9-0.9,4.6-2.2,7.5-2.7c1.6-0.3,3.8-0.5,6.2,0.2c1.6,0.5,3,1.2,4.2,2c4.4,2.8,8.6,7.4,8.8,7.6c0.4,0.4,0.4,1.1-0.1,1.5
			C130,168.8,129.7,168.9,129.5,168.9z"/>
	</g>
	<g>
		<path d="M119.3,165.2c-2.1,2.1-5.4,2.1-7.5,0c-1.9-1.9-2.1-4.7-0.6-6.8c1.8-0.3,3.8-0.4,5.7,0.2c1.2,0.4,2.6,1,3.9,1.9
			C121.1,162.1,120.6,163.9,119.3,165.2z"/>
	</g>
	<g>
		<g>
			<path d="M170.7,148.7c10.8-5.2,24.3,1.7,33.8,6.9c1.1,0.7,0.2,2.4-1,1.8c-7.4-3.5-15.3-6.7-23.5-6.6c-2.6,0.1-5.1,0.6-7,1.9
				C170.3,154.3,168,150.3,170.7,148.7L170.7,148.7z"/>
		</g>
	</g>
	<g>
		<path d="M189.3,174.7c-0.1,0-0.2,0-0.4-0.1c-1-0.4-2.1-1.3-3.5-2.4c-1.3-1.1-2.8-2.3-4.4-3.4c-1.4-0.9-3.6-2-6.2-2.3
			c-1.1-0.1-2.2,0.1-3.3,0.4c-4.5,1.2-9.3,4.9-9.3,4.9c-0.4,0.3-1.1,0.3-1.4-0.2s-0.3-1.1,0.2-1.4c0.2-0.2,5.1-3.9,10.1-5.3
			c1.3-0.3,2.6-0.5,4.1-0.4c3,0.4,5.5,1.6,7.1,2.7c1.8,1.1,3.4,2.5,4.7,3.5c1.1,1,2.2,1.9,2.9,2.1c0.5,0.2,0.8,0.8,0.6,1.3
			C190.1,174.5,189.7,174.7,189.3,174.7z"/>
	</g>
	<g>
		<path d="M181.5,168c0,1.3-0.5,2.7-1.6,3.7c-2.1,2.1-5.4,2.1-7.5,0c-1.5-1.5-1.9-3.8-1.2-5.7c1.3-0.4,2.5-0.5,3.7-0.4
			C177.4,165.7,179.6,166.7,181.5,168z"/>
	</g>
	<g>
		<path class="st3" d="M211.9,178.6c6.7-4.8,7.4-7.9,13.2-9.2s10.2,0.3,6.3,9.2c-3.9,8.9-11.8,23.7-15.8,27.4
			c-3.9,3.7-2.1,12.8-7.4,14.8s-8.4-1.1-6.3-11.7C204,198.6,211.9,178.6,211.9,178.6z"/>
	</g>
	<g>
		<path class="st3" d="M74.1,148.2c-4.2-3.8-5.5,7.1-2.6,15.6s1.6,9,2.6,18.3c1.1,9.3,3.2,15.9,5.6,21.7c2.4,5.8,3.6,7.4,6,0
			s0.8-17.8,0-30.6S83.5,156.8,74.1,148.2z"/>
	</g>
	<g>
		<path d="M143.2,206.7c-0.2,0-4.8-0.1-9.9-5.1l-0.1-0.1c-2.6-2.6-6.2-6.2-0.5-14.7c0-0.1,6.4-11.1,6.1-24.3c0-0.6,0.4-1,1-1.1
			c0,0,0,0,0,0c0.6,0,1,0.4,1,1c0.3,13.8-6.2,25-6.4,25.4c-4.8,7.1-2.2,9.7,0.2,12.1l0.1,0.1c4.5,4.4,8.4,4.5,8.5,4.5
			c0.6,0,1,0.5,1,1C144.2,206.3,143.8,206.7,143.2,206.7z"/>
	</g>
	<g>
		<path class="st5" d="M112.2,222.7l53,5.9c0,0-16.8,9.8-29,7.5c-7.2-1.4-14.3-4.7-17.6-7.5C115.1,225.6,112.2,222.7,112.2,222.7z"
			/>
	</g>
	<g>
		<path d="M165.3,229.6c-0.1,0-0.1,0-0.2,0c-6.7-1.2-11.4-1.3-15.9-1.5c-2.9-0.1-5.6-0.2-8.6-0.5c-0.8-0.1-20.3-2.3-28.6-3.9
			c-0.6-0.1-0.9-0.7-0.8-1.2c0.1-0.6,0.6-0.9,1.2-0.8c6.5,1.3,20.9,3,28.4,3.9c3,0.3,5.6,0.4,8.5,0.5c4.4,0.1,9.4,0.3,16.2,1.5
			c0.6,0.1,0.9,0.6,0.8,1.2C166.2,229.3,165.8,229.6,165.3,229.6z"/>
	</g>
	<g>
		<path class="st6" d="M141,245.7c-1.3,0-3-0.1-5.7-0.5c-0.6-0.1-1-0.6-0.9-1.1c0.1-0.6,10.5,0.1,10.5,0.1l0.2,1
			C143.6,245.5,142.5,245.7,141,245.7z"/>
	</g>
	<g>
		<path d="M139.4,223.4c-0.2,0-0.3,0-0.4,0c-1.1-0.2-2-0.5-2.8-0.8c-1-0.4-1.9-0.8-3.2-0.8c-0.3,0-0.5-0.2-0.5-0.5s0.2-0.5,0.5-0.5
			c1.5,0,2.6,0.4,3.6,0.8c0.8,0.3,1.6,0.6,2.6,0.8c0.4,0.1,1.2-0.1,2-0.2c1.3-0.2,2.8-0.4,3.9-0.1c0.3,0.1,0.4,0.4,0.3,0.6
			c-0.1,0.3-0.4,0.4-0.6,0.3c-0.8-0.3-2.3,0-3.4,0.1C140.6,223.3,139.9,223.4,139.4,223.4z"/>
	</g>
	<g>
		<path class="st2" d="M129.4,87.7c-13.7,4.7-21.6,5.3-32.2,20.3c-10.5,15.1-6.8,13.9-10.3,24.5c-3.5,10.7-4.3,31.2-8.5,27.7
			s-2.9-14.8-7.5-12.9s-4.1,10.4-2.5,16c1.6,5.5,0,16.2,2.5,20.7c2.4,4.5,9.5,28,8.8,31.9s-11.1-17.7-12.4-25.4
			c-1.3-7.7-5.9-16.3-4.8-23.9c1.1-7.5-0.2-14.5-3.5-17.9s-3.3-19.5,2.1-28.9c5.4-9.5,8.9-23.5,15.1-33.7
			c6.1-10.2,2.6-18.9,19.4-22.8s24.4-9.1,35.3-9.1s13.9,3,23.5,0s41.5,8.4,46.9,11.6c5.4,3.2,47.8,43.5,46.8,56.8s-5.6,39-8.1,47.1
			s2.1,20.2-7.1,28.1s-9.5,6.5-13.3,15.7c-3.8,9.4,3.1,5.9-0.1,12.9c-2.7,6.1-9.6,1-11.6,9.5c-1.9,8.5-1.6,15-6.7,19
			s-3.4,11.2-6.2,6.9c-2.8-4.4-9.1,2.3-5.8-9.1c1-3.4,8.9-8.4,9.6-14.5c0.7-6.2,1.5-9.1,5.4-13.4c3.9-4.2,8.8-3.4,10-11.2
			c1.2-7.8,7.3-13.1,10.5-18.8s3.7-21.4,4.4-27c0.7-5.7-4.1,4.3-8.2,8.2c-4.1,4-8.2,0.4-6.7-8.2s0-34.2-3.2-40.9
			c-3.2-6.7-7-13.2-16.1-21c-9.1-7.9-7.9-4.7-21.2-9.3c-14.7-5-14.9-0.2-28.9-6.5S129.4,87.7,129.4,87.7z"/>
	</g>
	<g>
		<g>
			<path class="st4" d="M88.7,233.7c-1.4,1.1-2.4,2.1-5.3,2.3c-3.4,0.1-6.7-1.8-8.8-4.1c-7.6-8.6-7.1-24.8,1.9-32.1
				c1.9-1.5,4.2-2.3,6.6-2.2c0.6,0,0.6,1,0,1c-9,1-11.7,12.3-10.7,19.9c0.8,5.7,3.6,12.3,9.5,13.5c0.3,0.1,0.9,0.1,1.2,0.1
				c2.9-0.1,3-0.2,4.5-0.9C88,232.1,88.7,233.7,88.7,233.7z"/>
		</g>
	</g>
	<g>
		<g>
			<path class="st4" d="M207.6,215c13.8,3.5,14.2,32.3,1.4,37.6c-7.7,3-13.5-5.4-13.7-12.3l0.8-1.2c0,0.1,0.2,0.5,0.2,0.5
				s4.4,8.7,8.7,9.7c2.9,0.6,5.7-1.9,7.1-4.5c3.5-6.1,3.8-14,1.7-20.7c-1.1-3.3-3.1-6.7-6.5-8C206.7,215.8,207,214.9,207.6,215
				L207.6,215z"/>
		</g>
	</g>
	<g>
		<path d="M136.1,352.4c-5,0-10.1-0.3-15.3-1c-28.4-3.8-40.8-26-43.9-32.7c-0.2-0.5,0-1.1,0.5-1.4c0.5-0.2,1.1,0,1.4,0.5
			c3,6.5,14.9,27.9,42.3,31.5c53.1,7.2,91.2-25.6,101.6-35.8c1.7-1.7,2.6-2.7,2.7-2.8c0.4-0.4,1-0.5,1.5-0.1c0.4,0.4,0.5,1,0.1,1.5
			c0,0-0.9,1-2.7,2.8C214.5,324.3,182,352.4,136.1,352.4z"/>
	</g>
</g>
</svg>
