<?xml version="1.0" encoding="utf-8"?>
<!-- Generator: Adobe Illustrator 26.0.1, SVG Export Plug-In . SVG Version: 6.00 Build 0)  -->
<svg version="1.1" id="Layer_1" xmlns="http://www.w3.org/2000/svg" xmlns:xlink="http://www.w3.org/1999/xlink" x="0px" y="0px"
	 viewBox="0 0 297.6 396.9" style="enable-background:new 0 0 297.6 396.9;" xml:space="preserve">
<style type="text/css">
	.st0{display:none;}
	.st1{display:none;fill:none;stroke:#000000;stroke-miterlimit:10;}
	.st2{fill:#C4BBBA;}
	.st3{fill:#FFCC99;}
	.st4{fill:#005792;}
	.st5{fill:#F7EAD0;}
	.st6{opacity:0.6;enable-background:new    ;}
	.st7{fill:#DD5061;}
</style>
<g id="Layer_2_00000069357676367816936760000012967578953836453788_" class="st0">
</g>
<line class="st1" x1="-85" y1="-2041.9" x2="-85" y2="-1823.3"/>
<line class="st1" x1="-155.7" y1="-1930.8" x2="-1.5" y2="-1930.8"/>
<g>
	<g>
		<path class="st2" d="M235.8,205.8c1.9,119.6-43.9,109.3-88.4,108.1s-74.6-41.2-72.7-112.4S114.5,64.1,159,65.3
			S234.7,134.6,235.8,205.8z"/>
	</g>
	<g>
		<path class="st3" d="M254.4,292.2c-13.2,19.5-57,37.7-95.1,37.7c-30.3,0-62-12-75.7-17.9c15-6.7,49.2-23.3,50.2-35.6
			c0.8-10.2,3.2-36.4-1.5-47.6c-4.8-11.2,65.1-3.1,65.1-3.1c1.9,15.2,4.5,28.8,5.6,44.6C204,286.2,254.4,292.2,254.4,292.2z"/>
	</g>
	<g>
		<path class="st4" d="M199.1,240.2c0.3,5.1-10.4,24.9-32.3,31.2c-12.2,3.5-32.7,3-32.7,3c-0.3-10.9,2.1-28.9-0.2-35.3
			C129.9,227.7,199.1,240.2,199.1,240.2z"/>
	</g>
	<g>
		<path d="M159.3,330.9c-31,0-63.5-12.6-76.1-18c-4.4-1.9-7-3.2-7-3.2c-0.5-0.2-0.7-0.8-0.4-1.3c0.2-0.5,0.8-0.7,1.3-0.4
			c0,0,2.6,1.3,7,3.2c12.4,5.4,44.7,17.8,75.3,17.8c36.8,0,80.9-17.4,94.3-37.3c0.3-0.4,0.9-0.5,1.3-0.3c0.4,0.3,0.5,0.9,0.3,1.3
			C241.5,313.1,196.7,330.9,159.3,330.9z"/>
	</g>
	<g>
		<path class="st3" d="M228.2,155.2c3.7-1.5,6.7-4.8,5.1,13.9c-1.6,18.7-2.2,28.5-5,32.2c-2.8,3.6-6.8,5.5-8-0.2
			c-1.3-5.7-0.9-33.5,1-38.3C223.1,158,228.2,155.2,228.2,155.2z"/>
	</g>
	<g>
		<path class="st3" d="M96.2,144.6c-0.9,20.3,4.8,53.6,8.3,64.8c4.2,13.4,25.4,54.5,56.9,52.9c30.4-1.5,51.8-25.9,56.7-47.9
			c4-18.1,8.8-44.9,6-67.2c-2.8-22.3-4.5-85.1-74.6-81.9C95.7,67.9,96.2,144.6,96.2,144.6z"/>
	</g>
	<g>
		<g>
			<path d="M168.6,160.5c7.9-9.2,14.3-12.7,26.2-8.4c2.6,0.8,5.3,1.8,7.8,0.7c2.7-1.1,4.5,2.9,1.8,4.1c-1.9,0.7-4.2,0.8-6,0.4
				c-4.6-1-8.7-3.8-13.3-3.8c-5.3-0.3-9.8,3.1-13.4,6.8c-0.8,0.6-2.1,2.7-3.2,1.5C168.1,161.4,168.2,160.8,168.6,160.5L168.6,160.5z
				"/>
		</g>
	</g>
	<g>
		<g>
			<path d="M168.7,141.3c5.4-3.5,11.4-5.1,17.7-6.2c6.4-1.1,13,1.7,17.1,6.5c0.8,0.9-0.5,2.1-1.4,1.3c-2.1-1.9-4.6-3.3-7.2-4
				c-4.1-1.2-8.1-0.3-11.9,1.2c-3.8,1.4-7.8,3.2-10.8,5.8C169.2,148.5,165.4,143.7,168.7,141.3L168.7,141.3z"/>
		</g>
	</g>
	<g>
		<circle cx="185.6" cy="155.7" r="5.6"/>
	</g>
	<g>
		<circle cx="130.3" cy="158.6" r="5.6"/>
	</g>
	<g>
		<g>
			<path d="M140.5,161.7c-3.9-3-8.1-7.7-13.3-5.9c-3.7,1.2-7.1,4.3-11.2,5.5c-1.5,0.5-3.3,0.6-5,0.3c-2.4-0.6-1.6-4.1,0.8-3.6
				c5,1.2,9.5-3.7,14.7-4.8c6.2-1.8,11.3,3.5,15.3,7.2C142.6,161,141.5,162.4,140.5,161.7L140.5,161.7z"/>
		</g>
	</g>
	<g>
		<g>
			<path d="M134.2,146.7c-4.6-2.9-9.3-5.1-14.6-6.5c-2.4-0.7-4.7-0.6-6.5,0.8s-3,4-4.2,6.4c-0.2,0.5-0.8,0.7-1.3,0.5
				c-0.4-0.2-0.6-0.7-0.5-1.2c0.5-1.3,0.9-2.6,1.5-3.9c2-4.8,6.6-7.2,11.6-6.1c5.6,0.9,11.2,2.7,16.3,5.2c1.4,0.6,2,2.2,1.4,3.6
				C137.4,146.9,135.6,147.5,134.2,146.7L134.2,146.7z"/>
		</g>
	</g>
	<g>
		<path d="M156.6,199.8c0,0-0.1,0-0.1,0c-0.5-0.1-12.5-1.8-14.6-7.4c-1.2-3.3,1.1-8.9,3.2-13.9c0.7-1.6,1.3-3.1,1.6-4.2l0.5-1.6
			c1.5-4.9,3-10,3.6-14.4c0.1-0.5,0.5-0.9,1.1-0.8c0.5,0.1,0.9,0.5,0.8,1.1c-0.5,4.6-2.1,9.7-3.6,14.7l-0.5,1.6
			c-0.4,1.2-1,2.8-1.7,4.4c-1.7,4.2-4,9.9-3.1,12.5c1.4,3.7,9.9,5.7,13,6.2c0.5,0.1,0.9,0.6,0.8,1.1
			C157.5,199.4,157.1,199.8,156.6,199.8z"/>
	</g>
	<g>
		<path class="st5" d="M143.6,75.5c15.3-0.4,31,8.7,49.1,26.9c18,18.2,26.4,36.5,26.2,47c-0.4,19.6,3,6.9,8.3,5.8s2.9,23.4,3,39.6
			c0,6.5-0.3,23.3-7.5,36.6c-6.9,12.7-2.8,8.9-10,23.7c-6.7,13.7-15.2,15.7-15.2,15.7l11.9,3c-7.5,9.8-18.7,23.7-18.7,23.7l24.7-7.4
			c0,0,0.2,3.3-4.7,15.7c-2.2,5.7-11.8,14.9-11.8,14.9s31,10.7,39.7,10.8c10.5,0.2,30-28.2,29-37.1c-1.1-8.9-17.4-44.7-22-60
			c-6.7-22-4.1-81.9-4.1-87.6s-2.1-55.9-38.5-77.5c-35.5-21.1-50.3-13.7-57-12.7C137.3,57.9,127.3,75.9,143.6,75.5z"/>
	</g>
	<g>
		<path class="st5" d="M139,79.9c-4.6,3.6-23.2,24.3-25.6,40.7c-2.4,16.4-1,22.6-4.1,49.5c-3.7,32.2,9,55.4,10.6,67.2
			c4,30.8,9.8,53.6,9.8,53.6s-17.4-11.9-12.9-7.8c2.3,2.2,5.1,14.4,6.1,23.4c3.6,29.7-9.7,19.5-24.7,35s-11.1-20.9-16-2.7
			c-13.3,13.3-23.1,12.4-23.1,12.4s12.8-27.7,8.1-24.2c-10.5,19.6-24,15.4-29,9.5c8.9-11.1-5.1-24.2,3.6-28
			c7.6-10,12.5-27.9,13.3-31.6c3-13.9-3.4-16.9,3.5-40.5c8.2-28,6.8-74.9,10.2-95.7c4.3-26.4,29.1-71,45.9-76.7
			c24.6-8.4,32.5-8.6,34.4,1.3C151.3,75.2,139,79.9,139,79.9z"/>
	</g>
	<g class="st6">
		<ellipse class="st7" cx="157.7" cy="224" rx="10.9" ry="10.4"/>
	</g>
	<g>
		<path d="M156.1,224.2c-5.5,0-14.1-0.8-19-1.3c-1.3-0.1-2.3-0.2-2.8-0.3c-0.5,0-0.9-0.5-0.9-1c0-0.5,0.5-0.9,1-0.9
			c0.5,0,1.6,0.1,2.9,0.3c5,0.5,15.5,1.5,20.6,1.2c6.9-0.4,16.8-1.4,24.3-3.9c0.5-0.2,1,0.1,1.2,0.6s-0.1,1-0.6,1.2
			c-7.8,2.6-17.8,3.6-24.8,3.9C157.4,224.2,156.8,224.2,156.1,224.2z"/>
	</g>
</g>
</svg>
