<?xml version="1.0" encoding="utf-8"?>
<!-- Generator: Adobe Illustrator 26.0.1, SVG Export Plug-In . SVG Version: 6.00 Build 0)  -->
<svg version="1.1" id="Layer_1" xmlns="http://www.w3.org/2000/svg" xmlns:xlink="http://www.w3.org/1999/xlink" x="0px" y="0px"
	 viewBox="0 0 297.6 396.9" style="enable-background:new 0 0 297.6 396.9;" xml:space="preserve">
<style type="text/css">
	.st0{display:none;}
	.st1{display:none;fill:none;stroke:#000000;stroke-miterlimit:10;}
	.st2{fill:#0F517A;}
	.st3{fill:#FFCC99;}
	.st4{fill:#005792;}
	.st5{opacity:0.52;enable-background:new    ;}
	.st6{fill:#FFFFFF;}
</style>
<g id="Layer_2_00000020372268172355840920000000344896242085756808_" class="st0">
</g>
<line class="st1" x1="-85" y1="-2041.9" x2="-85" y2="-1823.3"/>
<line class="st1" x1="-155.7" y1="-1930.8" x2="-1.5" y2="-1930.8"/>
<g>
	<g>
		<g>
			<path class="st2" d="M70,155.3c8.1,1.4,15.7,4.2,23.5,6.7c7.6,2.6,15.1,5.2,22.7,8l-0.3,1c-7.7-2-15.5-3.8-23.3-5.5
				c-7.6-1.6-15.4-3.5-23.1-4C69.5,161.3,70,155.3,70,155.3L70,155.3z"/>
		</g>
	</g>
	<g>
		<path class="st3" d="M251.9,293.8c-16.5,13.4-63.5,37.9-106,48.3c-36.8,9-48.6-10.3-52-19.7c14.8-6.6,35.8-15.2,35.8-15.2
			s4.7-17.3-6-45.8l0.5-3.2c0,0,48.9-52.8,85.6-60.1c4.1-0.8-13.7,47.8-1.3,63.3C216.3,271.1,236,284.1,251.9,293.8z"/>
	</g>
	<g>
		<path class="st4" d="M123.8,261.5c3.8,10.2,5.7,19,6.5,26c0,0,57-47.5,53-46.7C146.5,248.1,123.8,261.5,123.8,261.5z"/>
	</g>
	<g>
		<path class="st3" d="M99,103.9c-4.2,10.9-12.4,30.2-12.3,38.4c0.2,8.2,1,14.3,0,22.5s-7.8,11.4-7.8,22.5s8.7,66.7,31.3,76.6
			c22.6,9.9,68.8-13.4,80-31s18.7-28.1,19.7-34.7s21.4-29.4,22.8-45.6s4.6-54.8-25.4-70.1C177.4,67.1,115.5,61,99,103.9z"/>
	</g>
	<g>
		<path class="st3" d="M213.9,171.9c0.9,0.3,11.9-7,15.7,0c3.7,7,7.1,19.9,0,29.3s-12.1,17.9-18,18.7c-6,0.9-11.2-2.7-11.2-9.1"/>
	</g>
	<g>
		<circle cx="100.3" cy="163.6" r="3.6"/>
	</g>
	<g>
		<circle cx="154.3" cy="166.6" r="3.6"/>
	</g>
	<g>
		<g>
			<path d="M106.6,153.4c-4.4-2-8.8-3.9-13.4-5.5c-0.9-0.3-1.8-0.6-2.5-0.5c-1.4,0.1-2.7,1.9-3.2,3.6c-0.1,0.3-0.4,0.4-0.6,0.3
				c-0.2-0.1-0.4-0.3-0.3-0.6c0.2-1,0.6-2,1.2-2.9c0.7-1.1,2.1-2.2,3.6-2.1h0.8c5.4,0.8,10.6,2.4,15.8,3.9
				C110.7,150.6,109.2,154.5,106.6,153.4L106.6,153.4z"/>
		</g>
	</g>
	<g>
		<g>
			<path d="M135.2,152.2c7.1-2.2,14.2-3.5,21.5-4c3.7-0.3,7.5,0,10.9,1.7c3.4,1.6,5.8,4.6,8.3,7.1c0.5,0.4-0.2,1.2-0.7,0.7
				c-1.4-1.2-2.5-2.6-3.9-3.8c-3.9-3.7-9.3-4.8-14.5-4.1c-6.9,1.1-13.9,3.3-20.3,6.1C134.1,157,132.6,153.1,135.2,152.2L135.2,152.2
				z"/>
		</g>
	</g>
	<g>
		<path d="M116.1,227.7c-3.9,0-7.6-0.4-10.8-1.3c-2.1-0.6-4.2-1.5-5.8-2.5c-0.5-0.3-0.6-0.9-0.3-1.4c0.3-0.5,0.9-0.6,1.4-0.3
			c1.4,0.9,3.3,1.7,5.2,2.3c10,2.9,26.1,0,33.9-2.4c0.5-0.2,1.1,0.1,1.3,0.7c0.2,0.5-0.1,1.1-0.7,1.3
			C134.8,225.7,125.1,227.7,116.1,227.7z"/>
	</g>
	<g>
		<path class="st4" d="M124.3,162.8C124.3,162.8,124.3,162.8,124.3,162.8l-8.7-0.4c-0.6,0-1-0.5-1-1c0-0.6,0.5-1,1-1l8.7,0.4
			c0.6,0,1,0.5,1,1C125.3,162.4,124.9,162.8,124.3,162.8z"/>
	</g>
	<g>
		<path class="st2" d="M120.9,231.5c0.6-0.2-0.4,0.8-0.9,1.2c-2.1,1.4-7.1,0.9-8.9,0.5c-2-0.5-2.7-2.5-0.9-1.7
			C112.1,232.3,115.7,233,120.9,231.5z"/>
	</g>
	<g>
		<ellipse class="st4" cx="210.8" cy="248" rx="8.4" ry="9.9"/>
	</g>
	<g>
		<path d="M193.3,113.4c-9.2,1.9-15.5-0.3-19.4,4.8s2.7-13.1,7.8-12.9c5.1,0.2-7.8-6-18,0s-20.8,1-32.3,7.2
			c-11.5,6.1-20.1,4.6-29,5.1s-12.1,0.7-13.6,4.1s-4.8-19.6,3.9-29.3c8.7-9.7,22.9-15,22.9-15l-9.4,1.4c0,0,20.2-14.8,35.3-14.6
			s33.5-8,58.7,9.5s24,16.3,25.2,17.5c4.4,4.5,12.4,15.8,11.6,36.9s-1.4,31.8-5.5,39.1s-11.7,1.2-16.5,7.5s-2,12.1-3.7-17.3
			C209.6,127.9,193.3,113.4,193.3,113.4z"/>
		<path d="M212.1,180.3c0,0-0.1,0-0.1,0c-0.5-0.1-0.5-0.3-0.5-3.1c0-2.9,0-9.1-0.7-19.8c-1.6-27.3-15.9-41.8-17.7-43.5
			c-3.1,0.6-5.9,0.8-8.3,0.9c-4.7,0.3-8.1,0.5-10.5,3.6c-0.6,0.8-1.1,1.3-1.7,1c-0.6-0.3-0.4-1.1-0.2-2c0.8-3,5.1-13,9.3-12.8
			c0.1,0,0.2,0,0.3,0c-2-1.2-10.7-3.4-18,0.9c-5.2,3-10.3,3.3-15.8,3.6c-5.3,0.3-10.8,0.6-16.5,3.6c-9.2,4.9-16.6,5-23.7,5
			c-1.8,0-3.7,0-5.5,0.1c-9.1,0.5-11.8,0.8-13.2,3.8c-0.2,0.5-0.6,0.6-0.8,0.6c0,0,0,0,0,0c-0.5,0-0.8-0.6-0.9-0.8
			c-1.5-3.4-2.8-21.3,4.8-29.7c6-6.7,14.7-11.4,19.5-13.6l-5.6,0.8c-0.2,0-0.4-0.1-0.5-0.3c-0.1-0.2,0-0.5,0.2-0.6
			c0.8-0.6,20.5-14.9,35.6-14.7c3.5,0,7.2-0.4,11.1-0.8c12.7-1.4,28.4-3.1,47.9,10.4c12.6,8.7,18.7,12.9,21.6,14.9
			c3,2.1,3,2.1,3.7,2.7c3.8,3.9,12.6,15.3,11.7,37.3c-0.8,20.7-1.4,31.9-5.6,39.3c-2.3,4-5.6,4.2-8.8,4.4c-2.9,0.2-5.6,0.3-7.8,3.2
			c-1.2,1.6-2,3.2-2.4,4.2C212.7,179.9,212.5,180.3,212.1,180.3z M193.3,112.9c0.1,0,0.2,0,0.3,0.1c0.2,0.1,16.5,15,18.2,44.3
			c0.6,10.8,0.6,16.9,0.7,19.9c0,0.3,0,0.5,0,0.8c0.5-1,1.1-2.3,2.1-3.6c2.4-3.2,5.5-3.4,8.5-3.6c3.1-0.2,5.9-0.3,7.9-3.9
			c4.1-7.2,4.7-18.3,5.4-38.9c0.8-21.6-7.7-32.7-11.5-36.5c-0.6-0.6-0.6-0.6-3.5-2.6c-2.9-2-9-6.1-21.6-14.9
			c-19.2-13.3-34.1-11.7-47.2-10.2c-3.9,0.4-7.7,0.8-11.2,0.8c-12.2-0.2-28,9.8-33.3,13.3l7.3-1.1c0.3,0,0.5,0.1,0.6,0.4
			s-0.1,0.5-0.3,0.6c-0.1,0.1-14.2,5.4-22.7,14.9c-7.4,8.2-5.9,25.8-4.6,28.6c1.7-3.5,5.1-3.7,13.9-4.2c1.9-0.1,3.8-0.1,5.6-0.1
			c7-0.1,14.2-0.1,23.2-4.9c5.9-3.2,11.5-3.5,16.9-3.7c5.3-0.3,10.4-0.5,15.3-3.5c7.8-4.6,17.6-2.2,19.5-0.6c0.5,0.4,0.4,0.8,0.4,1
			c-0.2,0.5-1,0.6-1.6,0.6c0,0,0,0-0.1,0c-1,0-2.1,0.8-3.4,2.4c-2.5,3.1-4.6,8.1-4.9,10c0.1-0.1,0.1-0.2,0.2-0.3
			c2.7-3.5,6.5-3.7,11.2-4c2.5-0.1,5.3-0.3,8.4-1C193.3,112.9,193.3,112.9,193.3,112.9z"/>
	</g>
	<g>
		<path d="M128.3,345.5c-24,0-32.5-15.1-35.3-22.7c-0.2-0.5,0.1-1.1,0.6-1.3c0.5-0.2,1.1,0.1,1.3,0.6c3.1,8.7,14.4,28,50.8,19.1
			c42.7-10.5,89.5-35.1,105.5-48.1c0.7-0.6,1.5-1.2,2.1-1.9c0.4-0.4,1-0.4,1.4,0.1c0.4,0.4,0.4,1-0.1,1.4c-0.7,0.7-1.5,1.3-2.2,1.9
			c-16.2,13.1-63.3,38-106.3,48.5C139.5,344.7,133.6,345.5,128.3,345.5z"/>
	</g>
	<g>
		<g>
			<path class="st4" d="M211.3,214.5c0.2,4.2,0.3,8.3,0.3,12.5c-0.2,4.2,0.5,8.4-0.6,12.5c-1.7,2.1-1.6-5.5-1.5-6.3
				c0.1-6.3,0.3-12.5,0.8-18.8C210.4,213.9,211.3,213.9,211.3,214.5L211.3,214.5z"/>
		</g>
	</g>
	<g>
		<path d="M113.9,222.3c-0.3,0-0.6,0-0.9-0.1c-2.1-0.5-4.4-1.6-4.5-1.6c-0.2-0.1-0.4-0.4-0.2-0.7s0.4-0.4,0.7-0.2
			c0,0,2.3,1.1,4.3,1.6c1.5,0.4,6-1,7.6-1.6c0.3-0.1,0.5,0,0.6,0.3c0.1,0.3,0,0.5-0.3,0.6C120.6,220.8,116.3,222.3,113.9,222.3z"/>
	</g>
	<g>
		<g>
			<path class="st4" d="M175.2,158.7c8.3,0.6,16.1,2.5,24.1,4.2c7.8,1.8,15.6,3.6,23.4,5.6l-0.2,1c-7.9-1.2-15.8-2.2-23.7-3.1
				c-7.7-0.8-15.7-1.9-23.4-1.6C175.3,164.8,175.2,158.7,175.2,158.7L175.2,158.7z"/>
		</g>
	</g>
	<g>
		<path d="M140.1,169.1c-0.2,0-0.3-0.1-0.4-0.2c-0.2-0.2-0.1-0.5,0.1-0.7c0.5-0.3,1-0.7,1.5-1.1c4.4-3.3,11.1-8.3,23.9,0.3
			c0.2,0.2,0.3,0.5,0.1,0.7c-0.2,0.2-0.5,0.3-0.7,0.1c-12.2-8.2-18.3-3.6-22.7-0.3c-0.5,0.4-1,0.8-1.5,1.1
			C140.3,169.1,140.2,169.1,140.1,169.1z"/>
	</g>
	<g>
		<path d="M108.2,168c-0.2,0-0.3-0.1-0.4-0.2c-0.3-0.4-0.6-0.8-0.9-1.3c-1.5-2.4-3.5-5.4-6.8-6c-2.8-0.5-6.3,0.7-10.3,3.5
			c-0.2,0.2-0.5,0.1-0.7-0.1c-0.2-0.2-0.1-0.5,0.1-0.7c4.4-3.1,8-4.3,11.1-3.7c3.8,0.7,5.8,3.9,7.4,6.4c0.3,0.5,0.6,0.9,0.8,1.3
			c0.2,0.2,0.1,0.5-0.1,0.7C108.4,168,108.3,168,108.2,168z"/>
	</g>
	<g class="st5">
		<path class="st6" d="M115.6,161.4c0,3.3-4.5,29.5-22.2,26.5c-19.9-3.4-20.8-11.8-23.5-27.8C66.7,141,115.6,161.4,115.6,161.4z"/>
		<path d="M96.2,188.7c-0.9,0-1.9-0.1-2.8-0.2c-19.7-3.4-21.1-11.8-23.7-27l-0.2-1.2c-0.5-3,0.2-5.2,2.1-6.7
			c9-7.1,42.9,6.9,44.3,7.5c0.2,0.1,0.3,0.3,0.3,0.5c0,1.9-2.1,16.6-10.4,23.7C102.9,187.5,99.7,188.7,96.2,188.7z M79.5,152.4
			c-3.1,0-5.7,0.5-7.4,1.8c-1.6,1.3-2.1,3.1-1.7,5.8l0.2,1.2c2.6,15.3,3.8,22.9,22.9,26.2c4.4,0.7,8.2-0.3,11.6-3.1
			c7.2-6.1,9.9-19.1,10-22.6C112.3,160.6,91.8,152.4,79.5,152.4z"/>
	</g>
	<g class="st5">
		<path class="st6" d="M124.3,161.8c-0.2,3.3,3,28,22.9,28c21.5,0.1,23.1-5.4,27.8-26.1C179.3,144.8,124.3,161.8,124.3,161.8z"/>
		<path d="M147.8,190.3c-0.2,0-0.4,0-0.5,0c-5.9,0-10.9-2.1-14.9-6.3c-7.1-7.5-8.7-19.5-8.5-22.2c0-0.2,0.2-0.4,0.4-0.4
			c1.7-0.5,40.7-12.4,49.7-4.1c1.7,1.6,2.3,3.8,1.6,6.6C170.9,184.1,169.5,190.3,147.8,190.3z M124.8,162.2c0,2.5,1.3,13.8,8.3,21.1
			c3.8,4,8.5,6,14.1,6c0.2,0,0.4,0,0.6,0c20.9,0,22.2-5.5,26.7-25.7c0.6-2.4,0.1-4.3-1.3-5.6C165,150.4,128.8,161,124.8,162.2z"/>
	</g>
	<g>
		<path class="st4" d="M96.2,189.2c-1,0-1.9-0.1-2.9-0.3c-20.1-3.4-21.5-11.9-24.1-27.4l-0.2-1.2c-0.5-3.2,0.2-5.6,2.2-7.2
			c9.2-7.3,43.4,6.8,44.8,7.4c0.4,0.2,0.6,0.5,0.6,0.9c0,1.9-2.1,16.9-10.6,24C103.1,187.9,99.8,189.2,96.2,189.2z M79.4,153
			c-3,0-5.5,0.5-7,1.7c-1.4,1.1-1.9,2.9-1.5,5.3l0.2,1.2c2.5,15,3.8,22.6,22.5,25.8c4.2,0.7,8-0.3,11.2-3c7.2-6,9.5-18.6,9.8-21.9
			C106.8,158.9,89.8,153,79.4,153z"/>
	</g>
	<g>
		<path class="st4" d="M147.8,190.8c-0.2,0-0.4,0-0.6,0c-6,0-11.2-2.2-15.2-6.5c-7.2-7.6-8.8-19.8-8.7-22.6c0-0.4,0.3-0.8,0.7-0.9
			c1.7-0.5,41-12.5,50.2-4c1.9,1.7,2.5,4.1,1.8,7C171.2,185.1,169,190.8,147.8,190.8z M125.3,162.6c0.1,3.5,2,13.9,8.1,20.4
			c3.7,3.9,8.3,5.9,13.8,5.9c21,0.1,22.3-5.3,26.8-25.3c0.5-2.2,0.1-3.9-1.2-5.1C166,152,136.9,159.1,125.3,162.6z"/>
	</g>
	<g>
		<path class="st3" d="M115.9,167.6c0,0,0,0-12.6,24.5c-2.5,4.8-1.7,9.3,14.7,10.3"/>
		<path d="M118,203.4C118,203.4,118,203.4,118,203.4c-9.3-0.6-14.4-2.2-16.1-5.3c-1-1.8-0.8-3.9,0.5-6.5l12.6-24.5
			c0.3-0.5,0.9-0.7,1.3-0.4c0.5,0.3,0.7,0.9,0.4,1.3l-12.6,24.5c-1,2-1.2,3.4-0.6,4.6c1.3,2.3,6.2,3.8,14.5,4.3c0.6,0,1,0.5,0.9,1.1
			C119,203,118.5,203.4,118,203.4z"/>
	</g>
</g>
</svg>
