<?xml version="1.0" encoding="utf-8"?>
<!-- Generator: Adobe Illustrator 26.0.1, SVG Export Plug-In . SVG Version: 6.00 Build 0)  -->
<svg version="1.1" id="Layer_1" xmlns="http://www.w3.org/2000/svg" xmlns:xlink="http://www.w3.org/1999/xlink" x="0px" y="0px"
	 viewBox="0 0 297.6 396.9" style="enable-background:new 0 0 297.6 396.9;" xml:space="preserve">
<style type="text/css">
	.st0{display:none;}
	.st1{display:none;fill:none;stroke:#000000;stroke-miterlimit:10;}
	.st2{fill:#665E5D;}
	.st3{fill:#FFCC99;}
	.st4{fill:#005792;}
	.st5{fill:#FFFFFF;}
	.st6{opacity:0.4;enable-background:new    ;}
	.st7{fill:#DD5061;}
</style>
<g id="Layer_2_00000021107674182179260990000000882451360082432945_" class="st0">
</g>
<line class="st1" x1="1365" y1="-2041.9" x2="1365" y2="-1823.3"/>
<line class="st1" x1="1294.3" y1="-1930.8" x2="1448.5" y2="-1930.8"/>
<g>
	<g>
		<path class="st2" d="M253.1,234.1C252.9,343.5,224.4,339,197.4,339c-13.5,0-126.4,73.4-106.7-49.1c8.1-50.7-21.8-73.7-19.5-128.7
			c2.4-57.9,99.3-32.1,126.3-32.1C224.4,129,253.2,176.2,253.1,234.1z"/>
	</g>
	<g>
		<path class="st3" d="M246.2,324.4c-15.9,20.3-77.2,46.8-120,41c-28.5-3.9-38-18-40.9-24.9c11.4-5.3,28.7-11.6,30.9-23.6
			c3.2-17.8,0-42,0-53.5c0,0,76.4-31.5,77.2-27.3s-10.8,38.9-0.7,53.6c10.6,15.4,30.3,26.4,43.6,30.4
			C240.3,321.3,243.6,322.8,246.2,324.4z"/>
	</g>
	<g>
		<path class="st4" d="M115.2,261.4c0.4,2.8,1.8,14.5,2.2,43.2c0,0,59.3-19.8,64.4-60.1C182.3,240.3,115.2,261.4,115.2,261.4z"/>
	</g>
	<g>
		<path class="st3" d="M192.3,244.4c-11.7,20.2-33.7,37.4-69.8,37.4c-14.8,0-41.8-35.1-45.4-58.9c-0.2-1.4-0.3-2.7-0.4-4
			c-0.3-7.9,0.4-12.4,1.3-15.9c1.3-5.4,2.9-8.1,1.4-17.2C75.3,161,81.3,75.7,140.5,81.6c15.3,1.5,57.3,4.9,69.6,41.7
			C222.5,160.1,203.8,224.7,192.3,244.4z"/>
	</g>
	<g>
		<g>
			<path d="M135.3,176.7c11.3-4.2,22.8-7.4,32.9,1.4c0.6,0.5,0.1,1.5-0.7,1.2c-2.6-1.2-4.8-2.6-7.5-3.3c-2.6-0.7-5.2-0.9-7.9-0.7
				c-5.5,0.5-10.8,2.2-16.1,3.8C134.5,179.6,133.7,177.3,135.3,176.7L135.3,176.7z"/>
		</g>
	</g>
	<g>
		<g>
			<path d="M103.4,180.9c-6.4-3.6-14.3-5.8-21.1-2c-1.3,0.7-2.3-1.2-1.1-1.9c7.3-4.4,16.4-2.4,23.4,1.4
				C106.3,179.3,105.1,181.8,103.4,180.9L103.4,180.9z"/>
		</g>
	</g>
	<g>
		<path d="M111.9,232.1c-0.1,0-0.2,0-0.3-0.1c-4.5-1.6-7.3-3.8-8.4-6.6c-0.9-2.1-0.7-4.5,0.6-6.9c5.8-11.6,7.2-21.3,4.6-31.4
			c-0.1-0.5,0.2-1.1,0.7-1.2c0.5-0.1,1.1,0.2,1.2,0.7c3.5,13.7-1,25.3-4.8,32.8c-1,1.9-1.1,3.7-0.5,5.3c0.9,2.2,3.3,4,7.2,5.4
			c0.5,0.2,0.8,0.8,0.6,1.3C112.7,231.9,112.3,232.1,111.9,232.1z"/>
	</g>
	<g>
		<path d="M116.3,249.6c-8.3,0-15.4-0.9-18.5-3.2c-0.5-0.3-0.6-0.9-0.2-1.4c0.3-0.5,0.9-0.6,1.4-0.2c4.9,3.5,23.8,3.8,41.1,0.6
			c0.5-0.1,1.1,0.3,1.2,0.8c0.1,0.5-0.3,1.1-0.8,1.2C132.8,248.8,124,249.6,116.3,249.6z"/>
	</g>
	<g>
		<path class="st4" d="M118.1,260.5c-3.3,0-6.5-0.6-8.2-1.4c-0.2-0.1-0.3-0.4-0.2-0.7c0.1-0.2,0.4-0.3,0.7-0.2
			c2.8,1.4,10.7,2,15.2,0c0.3-0.1,0.5,0,0.7,0.3c0.1,0.3,0,0.5-0.3,0.7C123.8,260.1,120.9,260.5,118.1,260.5z"/>
	</g>
	<g>
		<path d="M116.1,242.6c-1.7,0-2.9-0.1-4.3-0.3c-0.4,0-0.8-0.1-1.2-0.1c-0.3,0-0.5-0.3-0.4-0.5c0-0.3,0.3-0.5,0.5-0.4
			c0.4,0,0.8,0.1,1.2,0.1c2.4,0.3,4.4,0.5,9,0c0.3,0,0.5,0.2,0.6,0.4c0,0.3-0.2,0.5-0.4,0.6C119,242.6,117.4,242.6,116.1,242.6z"/>
	</g>
	<g>
		<g>
			<path d="M135.5,191c2.3-1,4.6-2.9,7-4c3.7-2,8.3-2.6,12.5-1.6c4.1,0.6,7.5,3.5,11.3,4.7c1.4,0.4,0.8,2.5-0.6,2.1
				c-2.7-0.7-5-2.6-7.4-3.7c-4.7-2.1-10.3-2.5-15-0.1c-2.6,1.1-4.6,2.8-7.3,3.8C135,192.5,134.7,191.3,135.5,191L135.5,191z"/>
		</g>
	</g>
	<g>
		<g>
			<path d="M106.2,193.8c-1.2-4.1-5-7-9.2-7.3c-4.5-0.5-8.1,2.8-12.2,4.1c-1.1,0.2-1.5-1.4-0.4-1.6c2-0.5,4-1.8,6-2.6
				c4.2-2,9.6-1.7,13.2,1.4c1.8,1.5,3.1,3.6,3.8,5.8c0.1,0.3-0.1,0.6-0.4,0.7C106.6,194.2,106.3,194.1,106.2,193.8L106.2,193.8z"/>
		</g>
	</g>
	<g>
		<path d="M158.8,189.3c0,3-2.4,5.4-5.4,5.4s-5.4-2.4-5.4-5.4c0-1.4,0.5-2.6,1.3-3.5c0.1-0.2,2.6-0.4,4.8,0.1
			c2.3,0.5,4.5,1.7,4.5,1.9C158.8,188.2,158.8,188.7,158.8,189.3z"/>
	</g>
	<g>
		<path d="M104,189.3c0,3-2.4,5.4-5.4,5.4s-5.4-2.4-5.4-5.4c0-1.3,0.4-2.4,1.1-3.3c0.1-0.2,3.1-0.5,5.5,0.3S104,189.1,104,189.3z"/>
	</g>
	<g>
		<path class="st2" d="M102.6,102.5c-9.4,8,56,4.6,86.6,52.6c11.2,17.6,12.2,57.1,19.2,26.5c1.8-7.7,20,29.9,18.3,34
			c-7.4,18.2,19.3,7.3,18.2-51.6C244,111.9,181.8,35.6,102.6,102.5z"/>
	</g>
	<g>
		<path class="st2" d="M98.3,121.1C74.9,132.9,75.8,178,73.8,178c-5.7,0-15-95.3,70.6-100.3C180.8,75.5,98.3,121.1,98.3,121.1z"/>
	</g>
	<g>
		<path class="st3" d="M209.8,177.7c4.7-4.7,15.7-0.8,9.4,17.1c-8.8,25.1-7.8,31.4-14.7,31c-5.8-0.3-1-13.8-1-18.4
			S209.8,177.7,209.8,177.7z"/>
	</g>
	<g>
		<g>
			<path class="st5" d="M207.2,220c-0.5,9.6-0.7,19.4,0,28.9c0.2,1.5-2.1,1.6-2.1,0.1c0.3-7,0.4-14.8,0.3-21.8
				c-0.1-2.4-0.1-4.8-0.3-7.2c0-0.6,0.4-1.1,1-1.1C206.7,218.8,207.3,219.4,207.2,220L207.2,220z"/>
		</g>
	</g>
	<g>
		<circle class="st5" cx="206.2" cy="249.2" r="2.9"/>
	</g>
	<g>
		<path d="M138.8,367.2c-4.4,0-8.6-0.3-12.7-0.8c-29.7-4.1-39-19.2-41.7-25.5c-1-2.4-1.3-3.9-1.4-4c-0.1-0.5,0.2-1.1,0.8-1.2
			c0.5-0.1,1.1,0.2,1.2,0.8c0,0,0.3,1.4,1.2,3.6c2.5,6,11.5,20.4,40.1,24.3c42.8,5.8,103.6-20.8,119.1-40.6c0.9-1,1.5-2,2.2-3.3
			c0.3-0.5,0.9-0.7,1.4-0.4c0.5,0.3,0.7,0.9,0.4,1.4c-0.7,1.3-1.5,2.4-2.4,3.6C232.7,343.3,180.7,367.2,138.8,367.2z"/>
	</g>
	<g class="st6">
		<ellipse class="st7" cx="162.5" cy="213.6" rx="10.9" ry="10.4"/>
	</g>
	<g class="st6">
		<path class="st7" d="M91.6,213.1c0,5.7-4.9,10.4-10.9,10.4c-1.2,0-2.4-0.2-3.5-0.5c-0.2-1.4-0.3-2.7-0.4-4
			c-0.3-7.9,0.4-12.4,1.3-15.9c0.8-0.2,1.7-0.3,2.6-0.3C86.7,202.8,91.6,207.4,91.6,213.1z"/>
	</g>
</g>
</svg>
